<svg id="Layer_1" data-name="Layer 1" xmlns="http://www.w3.org/2000/svg" viewBox="0 0 128 128"><defs><style>.cls-1{fill:none;stroke:#000;stroke-linecap:round;stroke-linejoin:round;stroke-width:2px;}</style></defs><title>iStar_Design_Education_LineIcons_Live-83</title><path class="cls-1" d="M109,47.94l3.73-18.35a4.32,4.32,0,0,1,4.86-3.4h0a4.3,4.3,0,0,1,3.68,4.28V65.33A19.31,19.31,0,0,1,117.32,77L102.47,96.57a13.07,13.07,0,0,0-2.67,7.93v7.23"/><path class="cls-1" d="M102,79h0a4.94,4.94,0,0,1-1-6.92L108.53,62a4.74,4.74,0,0,0-1-6.63h0a5.15,5.15,0,0,0-7.21,1L83.09,79.1a26.36,26.36,0,0,0-5.33,14.05v18.58"/><polyline class="cls-1" points="71.54 117.54 71.54 111.73 103.99 111.73 103.99 117.54"/><polyline class="cls-1" points="67.59 126.5 67.59 117.54 106.89 117.54 106.89 126.5"/><path class="cls-1" d="M19,47.94,15.29,29.59a4.32,4.32,0,0,0-4.86-3.4h0a4.3,4.3,0,0,0-3.68,4.28V65.33A19.31,19.31,0,0,0,10.68,77L25.53,96.57a13.07,13.07,0,0,1,2.67,7.93v7.23"/><path class="cls-1" d="M26,79h0a4.94,4.94,0,0,0,1-6.92L19.47,62a4.74,4.74,0,0,1,1-6.63h0a5.15,5.15,0,0,1,7.21,1L44.91,79.1a26.36,26.36,0,0,1,5.33,14.05v18.58"/><polyline class="cls-1" points="56.46 117.54 56.46 111.73 24.01 111.73 24.01 117.54"/><polyline class="cls-1" points="60.41 126.5 60.41 117.54 21.11 117.54 21.11 126.5"/><path class="cls-1" d="M52.84,56.16q-3,3.6-5.8,7.59s48,17.33,62.43-48.92c0,0-18.52-6.47-45.55,4.35"/><path class="cls-1" d="M95.22,22.71A139.83,139.83,0,0,0,60,48.33"/><path class="cls-1" d="M37.91,60.35S72.83,46.66,55.8,1.5c0,0-41.7,20-17.89,58.85,0,0-1.18-19.32,10.22-36.59"/><path class="cls-1" d="M84.46,50.93A33.48,33.48,0,0,1,71.22,58.3"/></svg>