<?xml version="1.0" encoding="utf-8"?>
<!-- Generator: Adobe Illustrator 27.1.1, SVG Export Plug-In . SVG Version: 6.00 Build 0)  -->
<svg version="1.1" id="Layer_1" xmlns="http://www.w3.org/2000/svg" xmlns:xlink="http://www.w3.org/1999/xlink" x="0px" y="0px"
	 viewBox="0 0 166.14 174.99" style="enable-background:new 0 0 166.14 174.99;" xml:space="preserve">
<style type="text/css">
	.st0{fill:#231F20;}
</style>
<g>
	<g id="change1_1_00000054958513034554922620000010486830076986756004_">
		<path class="st0" d="M121.67,87.63c0,3.01-0.09,5.99-0.26,8.94c-0.64,0.5-1.3,0.99-1.97,1.48c0.22-3.4,0.34-6.87,0.34-10.42
			c0-20.75-3.9-39.17-10.24-52.12c0.84-0.4,1.63-0.88,2.35-1.45C117.92,48.67,121.67,67.58,121.67,87.63z M122.92,110.32
			c7.82-5.24,14.7-10.83,20.42-16.51c3.63,5.86,6.81,13.75,3.62,20.5c-1.55,3.29-4.44,5.86-8.45,7.67
			c-2.23-2.21-5.29-3.58-8.66-3.58c-3.62,0-6.87,1.58-9.12,4.08C121.61,118.57,122.34,114.51,122.92,110.32z M117.59,113.74
			c0.72-0.45,1.45-0.89,2.16-1.34c-0.68,4.33-1.54,8.51-2.54,12.53c-0.69-0.04-1.38-0.08-2.08-0.13
			C116.08,121.3,116.9,117.6,117.59,113.74z M112.23,124.51c-3.55-0.4-7.22-1.03-10.97-1.87c4.55-2.18,8.91-4.51,13.07-6.95
			C113.72,118.76,113.02,121.7,112.23,124.51z M62.1,47.41c3.44,0.55,6.96,1.31,10.52,2.23c-1.9,0.82-3.8,1.68-5.68,2.57
			c-2.27,1.07-4.58,2.24-7.14,3.61C60.48,52.88,61.25,50.07,62.1,47.41z M100.41,52.21c-1.85-0.88-3.7-1.7-5.55-2.51
			c5.61-1.5,11.02-2.54,16.13-3.04c1.32,4,2.44,8.34,3.35,12.95C109.74,56.9,105.07,54.41,100.41,52.21z M68.15,54.75
			c2.93-1.39,5.9-2.68,8.87-3.89c0.91,0.27,1.82,0.53,2.73,0.82c-3.8,1.47-7.64,3.11-11.51,4.94c-3.13,1.48-6.27,3.11-9.37,4.85
			c0.08-0.73,0.16-1.49,0.25-2.08C62.46,57.56,65.34,56.08,68.15,54.75z M81.65,47.54c0.67,0.24,1.35,0.49,2.03,0.74
			c0.92,0.33,1.84,0.67,2.76,1.02c0.69,0.26,1.38,0.54,2.07,0.82c0.68,0.27,1.36,0.53,2.04,0.81c2.89,1.19,5.78,2.47,8.66,3.83
			c5.26,2.49,10.53,5.33,15.69,8.44c0.08,0.56,0.15,1.25,0.23,1.93c-5.06-3.19-10.43-6.14-16-8.78c-3.62-1.72-7.28-3.26-10.94-4.66
			c-0.7-0.27-1.39-0.54-2.09-0.8c-0.72-0.26-1.44-0.51-2.16-0.76c-0.9-0.31-1.81-0.64-2.71-0.93c-0.74-0.24-1.47-0.45-2.2-0.68
			c-0.72-0.22-1.43-0.45-2.14-0.66c-4.53-1.31-9.02-2.35-13.38-3.1c0.07-0.29,0.14-0.6,0.22-0.9c0.11-0.45,0.22-0.93,0.33-1.36
			c5.13,1.14,10.31,2.59,15.5,4.32C80.25,47.07,80.95,47.29,81.65,47.54z M109.3,43.11c0.07,0.29,0.15,0.58,0.22,0.86
			c-5.95,0.68-12.28,2.03-18.83,3.98c-0.95-0.38-1.89-0.75-2.84-1.11c7.11-2.37,14.18-4.2,21-5.41
			C109,41.94,109.15,42.53,109.3,43.11z M104.35,36.69c0.86,0,1.7-0.09,2.51-0.26c0.37,0.75,0.74,1.53,1.09,2.32
			c-7.88,1.42-16.06,3.62-24.25,6.54c-6.29-2.24-12.56-4.07-18.78-5.45c5.51-12.88,13.23-20.91,21.75-20.91
			c2.08,0,4.1,0.48,6.06,1.38c-0.44,1.27-0.7,2.63-0.7,4.05C92.03,31.16,97.56,36.69,104.35,36.69z M56.34,87.63
			c0-7.85,0.59-15.39,1.67-22.43c3.76-2.19,7.61-4.22,11.43-6.03c4.91-2.33,9.77-4.33,14.56-6.05c4.65,1.65,9.32,3.58,13.93,5.77
			c6.29,2.98,12.32,6.36,17.92,10.04c0.74,5.95,1.15,12.22,1.15,18.7c0,4.3-0.18,8.49-0.52,12.57c-6.29,4.38-13.38,8.52-21.1,12.18
			c-3.9,1.85-7.8,3.49-11.69,4.96c-3.89-1.46-7.79-3.11-11.69-4.96c-5.22-2.47-10.14-5.16-14.73-8
			C56.66,99.02,56.34,93.41,56.34,87.63z M121.83,46.23c12.74,0,19.49,2.78,22.58,9.31c2.92,6.18,0.97,14.1-4.68,22.4l-0.08-0.08
			c-5.07-4.71-9.07-8.43-16.22-13.02l-0.56-0.36c-0.91-6.39-2.18-12.49-3.76-18.2C120.03,46.25,120.95,46.23,121.83,46.23z
			 M123.92,74.01c5.02,3.57,7.7,5.64,11.43,9.59c-3.08,3.56-6.78,7.13-11.01,10.62c0.09-2.18,0.14-4.38,0.14-6.6
			C124.49,83.01,124.29,78.46,123.92,74.01z M137.07,81.33c-3.99-4.18-6.97-6.39-12.54-10.34c-0.04-0.44-0.08-0.94-0.13-1.45
			c-0.02-0.23-0.04-0.47-0.06-0.71c5.44,3.72,8.86,6.9,13.38,11.1l0.25,0.23C137.67,80.56,137.37,80.95,137.07,81.33z M46.13,63.83
			c-6.99,4.53-13.19,9.28-18.52,14.09c-5.64-8.29-7.58-16.2-4.67-22.37c3.26-6.89,12.38-10.69,25.71-10.69
			c0.41,0,0.84,0.02,1.26,0.03C48.31,50.78,47.04,57.14,46.13,63.83z M45.13,73.23c-0.37,4.68-0.58,9.49-0.58,14.4
			c0,2.7,0.07,5.36,0.18,7.99c-4.75-3.77-8.89-7.66-12.3-11.54C36,80.48,40.25,76.84,45.13,73.23z M45.64,67.52
			c-0.11,0.73-0.22,1.46-0.29,2.07c-5.73,4.09-10.66,8.23-14.76,12.32c-0.45-0.56-0.88-1.11-1.3-1.67
			C34.04,75.9,39.52,71.62,45.64,67.52z M128.14,39.71c15.32,0,25.52,4.45,29.5,12.87c4.22,8.93-0.02,20.86-10.27,32.98l-0.08-0.09
			l-1.06,1.2c-1.34,1.52-2.49,2.77-3.64,3.94l-0.8,0.82l0.06,0.09c-5.19,5.17-11.4,10.29-18.47,15.14c-0.5,0.34-1.01,0.68-1.52,1.02
			c-0.53,0.36-1.06,0.72-1.6,1.07c-0.69,0.45-1.39,0.89-2.09,1.33c-0.54,0.34-1.08,0.68-1.62,1.01c-0.52,0.32-1.04,0.63-1.56,0.95
			c-4.96,2.99-10.24,5.83-15.79,8.46c-0.77,0.37-1.55,0.71-2.32,1.07c-3.03-0.8-6.09-1.72-9.18-2.78c2.95-1.18,5.91-2.47,8.86-3.86
			c7.1-3.37,13.65-7.1,19.55-11.05c0.51-0.34,1.01-0.68,1.51-1.02c0.52-0.36,1.03-0.72,1.54-1.08c0.67-0.48,1.35-0.96,2-1.44
			c0.51-0.38,1.01-0.76,1.51-1.14c0.5-0.38,0.99-0.76,1.48-1.14c18.92-14.92,28.43-31.78,22.8-43.71
			c-3.57-7.55-11.31-10.92-25.12-10.92c-1.04,0-2.12,0.02-3.23,0.05c-0.3-0.96-0.67-2.11-1.01-3.13
			C121.3,39.92,124.84,39.71,128.14,39.71z M104.35,14.84c5.24,0,9.5,4.27,9.5,9.52c0,1.61-0.4,3.12-1.11,4.45
			c-0.25,0.48-0.55,0.92-0.88,1.35c-0.34,0.44-0.71,0.84-1.12,1.21c-0.73,0.67-1.57,1.23-2.48,1.65c-0.46,0.21-0.93,0.38-1.42,0.51
			c-0.45,0.12-0.9,0.22-1.37,0.27c-0.37,0.04-0.74,0.07-1.12,0.07c-5.24,0-9.5-4.27-9.5-9.52c0-0.91,0.14-1.79,0.38-2.63
			c0.13-0.45,0.29-0.88,0.48-1.31c0.2-0.44,0.44-0.87,0.7-1.28c1.11-1.69,2.74-2.99,4.66-3.71c0.5-0.18,1.01-0.33,1.54-0.43
			c0.53-0.1,1.08-0.16,1.64-0.16C104.28,14.84,104.31,14.84,104.35,14.84z M52.79,44.96l0.3-1.07c0.41-1.46,0.83-2.91,1.28-4.31
			l0.52-1.61l-0.08-0.01c6.64-19.61,17.1-32.28,28.86-32.28c5.4,0,10.61,2.74,15.37,7.57c-2.1,1.01-3.87,2.59-5.1,4.55
			c-2.34-1.09-4.77-1.68-7.28-1.68c-18.58,0-33.13,31.42-33.13,71.52c0,5.1,0.24,10.06,0.69,14.83c-2.29-1.5-4.47-3.03-6.56-4.59
			c-0.19-3.36-0.29-6.77-0.29-10.24c0-6.88,0.38-13.55,1.09-19.94c0.03-0.2,0.06-0.4,0.09-0.59c0.13-0.87,0.26-1.7,0.33-2.29
			l0.38-2.99l-0.05,0.03c0.88-5.96,2.04-11.62,3.47-16.88L52.79,44.96z M18.18,87.52c0.32,0.38,0.65,0.75,0.98,1.13
			c0.31,0.35,0.61,0.71,0.93,1.06c0.67,0.75,1.36,1.49,2.07,2.24c0.33,0.34,0.67,0.68,1.01,1.02c0.35,0.35,0.69,0.7,1.04,1.05
			c0.96,0.95,1.94,1.89,2.96,2.83c-0.85,3.68-3.82,6.54-7.55,7.22c-0.49,0.09-1,0.14-1.52,0.15c-0.06,0-0.12,0.01-0.18,0.01
			c-0.42,0-0.83-0.04-1.24-0.09c-1.85-0.24-3.54-1.02-4.9-2.17c-0.38-0.32-0.73-0.67-1.05-1.04c-0.36-0.41-0.67-0.85-0.95-1.32
			c-0.86-1.43-1.36-3.1-1.36-4.89c0-4.73,3.46-8.65,7.98-9.38C16.97,86.05,17.57,86.78,18.18,87.52z M48.57,125
			c-0.84,0.03-1.67,0.05-2.48,0.05c-13.3,0-22.43-3.81-25.7-10.73c-1.06-2.23-1.45-4.7-1.23-7.34c4.77-0.48,8.73-3.7,10.32-8.06
			c4.93,4.32,10.52,8.54,16.66,12.53C46.77,116.14,47.58,120.68,48.57,125z M58.04,124.13c-2.28,0.33-4.51,0.57-6.7,0.72
			c-0.83-3.67-1.55-7.49-2.13-11.45c2.36,1.46,4.79,2.89,7.29,4.28C56.96,119.9,57.47,122.05,58.04,124.13z M59.81,119.48
			c2.05,1.08,4.15,2.14,6.29,3.17c-1.76,0.39-3.51,0.74-5.23,1.04C60.49,122.31,60.14,120.91,59.81,119.48z M83.67,130
			c8.27,2.96,16.42,5.17,24.24,6.58c-5.47,12.21-12.98,19.75-21.25,19.75c-8.52,0-16.22-8.01-21.73-20.86
			C71.04,134.11,77.33,132.27,83.67,130z M40.5,135.59C40.5,135.59,40.49,135.59,40.5,135.59c-15.92,0-26.86-4.59-30.79-12.91
			c-2.42-5.12-1.99-11.36,0.86-18.11c1.64,1.23,3.6,2.06,5.73,2.34c-0.21,3.05,0.29,5.94,1.55,8.6
			c3.76,7.96,13.79,12.35,28.24,12.35c1.03,0,2.08-0.03,3.15-0.07c0.45-0.02,0.91-0.05,1.37-0.08c0.47-0.03,0.93-0.05,1.4-0.08
			c2.22-0.17,4.5-0.43,6.81-0.77c0.49-0.07,0.99-0.15,1.48-0.23c0.45-0.07,0.9-0.15,1.35-0.23c2.8-0.5,5.66-1.11,8.55-1.85
			c3.11,1.4,6.23,2.71,9.34,3.91c-5.31,1.79-10.56,3.24-15.68,4.37c-0.44,0.1-0.89,0.19-1.33,0.28c-0.5,0.1-1,0.22-1.5,0.31
			c-2.39,0.47-4.75,0.87-7.08,1.19c-0.46,0.06-0.92,0.11-1.37,0.17c-0.45,0.06-0.9,0.11-1.34,0.17
			C47.54,135.37,43.95,135.59,40.5,135.59z M83.68,169.59c-11.75,0-22.21-12.66-28.85-32.25c2.39-0.34,4.81-0.76,7.26-1.25
			c6.02,14.25,14.73,23.07,24.57,23.07c9.61,0,18.13-8.42,24.13-22.08c0.86,0.13,1.72,0.27,2.57,0.38
			C106.27,156.74,95.4,169.59,83.68,169.59z M117.26,135.08c-0.46-0.05-0.92-0.1-1.39-0.15c-0.51-0.06-1.03-0.12-1.55-0.19
			c-0.8-0.1-1.6-0.22-2.41-0.34c-0.51-0.08-1.01-0.15-1.52-0.23c-0.45-0.07-0.9-0.15-1.34-0.23c-6.85-1.2-13.98-3.04-21.23-5.47
			c-0.69-0.23-1.39-0.48-2.08-0.72c-0.68-0.24-1.37-0.47-2.05-0.72c-3.05-1.11-6.11-2.34-9.17-3.65c-0.69-0.29-1.37-0.59-2.06-0.89
			c-0.66-0.29-1.32-0.6-1.99-0.9c-0.77-0.35-1.55-0.7-2.32-1.07c-3.13-1.48-6.16-3.04-9.11-4.64c-0.53-0.29-1.06-0.57-1.59-0.87
			c-0.56-0.31-1.1-0.62-1.65-0.94c-2.43-1.39-4.79-2.81-7.07-4.27c-0.51-0.33-1.03-0.65-1.53-0.98c-0.51-0.33-1.01-0.67-1.51-1
			c-5.72-3.82-10.93-7.83-15.51-11.9c-0.45-0.4-0.9-0.81-1.34-1.21c-0.51-0.47-1.03-0.94-1.52-1.41c-0.53-0.5-1.03-1-1.54-1.51
			c-0.35-0.34-0.7-0.68-1.04-1.02c-0.34-0.34-0.66-0.69-0.99-1.03c-0.65-0.68-1.28-1.36-1.89-2.03c-0.31-0.35-0.63-0.7-0.93-1.04
			c-0.33-0.38-0.65-0.75-0.97-1.13c-0.04-0.05-0.08-0.1-0.12-0.14c-0.44-0.52-0.88-1.05-1.3-1.57c-0.38-0.47-0.73-0.94-1.09-1.41
			C9.06,71.39,5.86,60.73,9.71,52.58c3.92-8.3,14.84-12.87,30.75-12.87c3.4,0,7,0.21,10.73,0.64c-0.17,0.57-0.34,1.14-0.5,1.72
			c-15.5-0.43-26.37,3.97-30.29,12.27c-3.4,7.21-1.27,16.22,5.12,25.51c0.27,0.4,0.56,0.8,0.85,1.2c0.27,0.38,0.55,0.75,0.83,1.13
			c0.45,0.59,0.92,1.18,1.4,1.78c0.3,0.36,0.6,0.73,0.91,1.09c0.31,0.36,0.62,0.73,0.94,1.09c3.96,4.49,8.83,8.96,14.49,13.25
			c0.49,0.37,0.97,0.74,1.47,1.11c0.49,0.36,0.99,0.71,1.49,1.07c2.14,1.53,4.37,3.03,6.7,4.5c0.52,0.33,1.05,0.65,1.57,0.97
			c0.51,0.31,1.01,0.62,1.52,0.93c4.11,2.45,8.49,4.78,13.09,6.96c2.95,1.4,5.91,2.68,8.86,3.86c0.66,0.27,1.33,0.53,1.99,0.78
			c0.68,0.26,1.36,0.52,2.04,0.77c3.08,1.13,6.14,2.14,9.17,3.02c0.72,0.21,1.43,0.41,2.14,0.6c0.72,0.2,1.45,0.4,2.16,0.58
			c4.89,1.25,9.67,2.14,14.26,2.69c0.46,0.05,0.92,0.11,1.37,0.16c0.51,0.05,1.02,0.09,1.53,0.14c0.72,0.06,1.44,0.12,2.16,0.16
			c0.48,0.03,0.96,0.06,1.44,0.08c-0.1,0.42-0.19,0.84-0.24,1.28c-0.08,0.55-0.13,1.11-0.13,1.68c0,0.89,0.1,1.76,0.28,2.6
			c0.14,0.64,0.33,1.25,0.56,1.84C118,135.15,117.63,135.12,117.26,135.08z M136.16,137.83c-1.68,1.5-3.89,2.42-6.31,2.42
			c-2.13,0-4.09-0.71-5.67-1.9c-0.57-0.43-1.1-0.92-1.57-1.47c-0.39-0.46-0.73-0.95-1.03-1.47c-0.79-1.38-1.24-2.98-1.24-4.68
			c0-1.01,0.16-1.98,0.45-2.89c0.16-0.49,0.36-0.96,0.59-1.41c0.25-0.5,0.55-0.97,0.88-1.41c1.74-2.31,4.49-3.81,7.59-3.81
			c2.13,0,4.08,0.71,5.67,1.9c0.43,0.32,0.84,0.68,1.2,1.07c0.35,0.36,0.67,0.75,0.95,1.17c1.05,1.53,1.68,3.39,1.68,5.39
			c0,1.38-0.3,2.69-0.83,3.87c-0.25,0.55-0.55,1.08-0.89,1.57C137.21,136.79,136.71,137.34,136.16,137.83z M141.73,133.91
			c0.27-1.01,0.43-2.07,0.43-3.17c0-2.39-0.69-4.61-1.87-6.5c4.31-2.08,7.45-5,9.21-8.73c3.07-6.51,1.65-14.7-4.11-23.74
			c0.61-0.64,1.23-1.31,1.89-2.04c10.58,12.53,14.35,24.48,10.36,32.94C155.09,128.07,149.6,131.88,141.73,133.91z M149.11,87.58
			c11.15-13.16,15.74-26.3,11.07-36.2c-4.47-9.47-15.55-14.48-32.04-14.48c-3.67,0-7.63,0.26-11.76,0.76
			c-0.72-2.01-1.48-3.94-2.28-5.81c1.6-2.08,2.56-4.67,2.56-7.49c0-6.8-5.52-12.33-12.31-12.33c-0.8,0-1.58,0.08-2.34,0.23
			c-5.55-5.97-11.78-9.39-18.33-9.39c-12.95,0-24.44,13.71-31.57,34.77c-4.05-0.48-7.96-0.73-11.64-0.73
			c-17.06,0-28.88,5.14-33.29,14.48c-4.12,8.72-1.04,19.94,7.35,31.48C9.38,84.34,5.6,89.08,5.6,94.7c0,2.94,1.04,5.64,2.76,7.77
			c-3.54,7.88-4.1,15.26-1.19,21.42c4.42,9.36,16.25,14.52,33.32,14.52c0,0,0,0,0.01,0c3.73,0,7.62-0.26,11.63-0.73
			c7.13,21.03,18.61,34.72,31.55,34.72c13.17,0,25.12-13.76,32.64-34.59c1.25,0.14,2.49,0.25,3.72,0.34
			c2.25,2.98,5.81,4.92,9.82,4.92c4.46,0,8.36-2.4,10.52-5.96c9.8-2.07,16.67-6.58,19.8-13.22
			C164.77,114.16,160.82,101.3,149.11,87.58"/>
		<path class="st0" d="M83.68,66.04c10.62,0,19.26,8.66,19.26,19.3c0,10.64-8.64,19.29-19.26,19.29c-10.63,0-19.27-8.65-19.27-19.29
			C64.41,74.7,73.05,66.04,83.68,66.04z M105.75,85.34c0-12.19-9.9-22.11-22.07-22.11c-12.17,0-22.08,9.92-22.08,22.11
			c0,12.19,9.9,22.1,22.08,22.1C95.85,107.44,105.75,97.52,105.75,85.34"/>
		<path class="st0" d="M77.37,72.29c4.53,0,8.21,3.69,8.21,8.22c0,4.53-3.68,8.22-8.21,8.22c-4.53,0-8.21-3.69-8.21-8.22
			C69.16,75.98,72.85,72.29,77.37,72.29z M77.37,91.55c6.08,0,11.02-4.95,11.02-11.04c0-6.09-4.94-11.04-11.02-11.04
			c-6.08,0-11.02,4.95-11.02,11.04C66.35,86.6,71.3,91.55,77.37,91.55"/>
	</g>
</g>
</svg>
