<svg id="Layer_1" data-name="Layer 1" xmlns="http://www.w3.org/2000/svg" viewBox="0 0 128 128"><defs><style>.cls-1{fill:none;stroke:#000;stroke-linecap:round;stroke-linejoin:round;stroke-width:2px;}</style></defs><title>iStar_Design_Education_LineIcons_Live-27</title><path class="cls-1" d="M68.31,96.41c-1.78.12-3.61.18-5.48.18-19.33,0-35-6.59-35-14.72"/><path class="cls-1" d="M97.84,81.87C97.84,88,89,93.2,76.46,95.43"/><line class="cls-1" x1="97.84" y1="69.57" x2="97.84" y2="81.87"/><line class="cls-1" x1="27.82" y1="69.57" x2="27.82" y2="81.87"/><polyline class="cls-1" points="49.03 51 8.6 61.86 62.83 81.87 117.06 61.86 62.83 47.29 53.52 49.8"/><polyline class="cls-1" points="61.41 61.63 86.5 73.14 86.5 101.22"/><polyline class="cls-1" points="82.97 105.63 82.97 101.22 89.83 101.22 89.83 105.63"/><path class="cls-1" d="M86.23,104.51h.34a5.32,5.32,0,0,1,5.32,5.32v6.46a0,0,0,0,1,0,0h-11a0,0,0,0,1,0,0v-6.46A5.32,5.32,0,0,1,86.23,104.51Z"/><line class="cls-1" x1="88.4" y1="116.3" x2="88.4" y2="113.23"/><line class="cls-1" x1="84.57" y1="116.3" x2="84.57" y2="110.78"/><path class="cls-1" d="M27.39,36.28c-1.66-.83-3-3-3.25-5.71s.6-5.1,2.07-6.25c1.67.84,3,3,3.26,5.72S28.87,35.14,27.39,36.28Z"/><path class="cls-1" d="M33.57,103.8c-1,1.56-3.35,2.63-6.05,2.59s-5-1.18-6-2.77c1-1.56,3.36-2.63,6.05-2.59S32.6,102.21,33.57,103.8Z"/><path class="cls-1" d="M44.71,110.52c-.85,3.12-4.14,6.12-8.61,7.48s-8.87.71-11.32-1.41c.85-3.12,4.14-6.12,8.61-7.48S42.27,108.41,44.71,110.52Z"/><path class="cls-1" d="M25.28,95c-2,2.51-6.25,3.94-10.89,3.39S6,95.5,4.58,92.58c2-2.51,6.25-3.94,10.89-3.39S23.88,92.11,25.28,95Z"/><path class="cls-1" d="M18.07,82c-3,1.12-7.38.19-11.1-2.65s-5.73-6.8-5.44-10c3-1.12,7.38-.2,11.09,2.64S18.36,78.76,18.07,82Z"/><path class="cls-1" d="M16.25,54.39C13.35,53,11,49.16,10.54,44.51s1-8.84,3.54-10.84c2.9,1.43,5.22,5.23,5.7,9.87S18.78,52.39,16.25,54.39Z"/><path class="cls-1" d="M36.61,26.87c-1.38-2.93-.84-7.34,1.67-11.29s6.28-6.31,9.51-6.29c1.38,2.92.84,7.34-1.67,11.28S39.84,26.88,36.61,26.87Z"/><path class="cls-1" d="M16.18,64.59c0,.76-.06,1.51-.06,2.27s0,1.33.05,2a46.72,46.72,0,0,0,34.39,43.09"/><path class="cls-1" d="M50.56,21.8A46.78,46.78,0,0,0,16.67,59.69"/><path class="cls-1" d="M100.61,36.28c1.66-.83,3-3,3.25-5.71s-.6-5.1-2.07-6.25c-1.67.84-3,3-3.26,5.72S99.13,35.14,100.61,36.28Z"/><ellipse class="cls-1" cx="98.48" cy="41.93" rx="2.68" ry="6.01" transform="translate(49.68 137.2) rotate(-85.94)"/><path class="cls-1" d="M34.27,40c-1.46-1.17-4-1.47-6.56-.6s-4.39,2.67-4.82,4.48c1.45,1.17,4,1.47,6.55.6S33.83,41.8,34.27,40Z"/><path class="cls-1" d="M94.43,103.8c1,1.56,3.35,2.63,6,2.59s5-1.18,6-2.77c-1-1.56-3.36-2.63-6-2.59S95.4,102.21,94.43,103.8Z"/><path class="cls-1" d="M102.72,95c2,2.51,6.25,3.94,10.9,3.39s8.4-2.92,9.8-5.84c-2-2.51-6.25-3.94-10.89-3.39S104.12,92.11,102.72,95Z"/><path class="cls-1" d="M109.93,82c3,1.12,7.38.19,11.1-2.65s5.73-6.8,5.44-10c-3-1.12-7.38-.2-11.09,2.64S109.64,78.76,109.93,82Z"/><path class="cls-1" d="M111.75,54.39c2.9-1.43,5.22-5.23,5.71-9.88s-1-8.84-3.54-10.84c-2.89,1.43-5.22,5.23-5.7,9.87S109.22,52.39,111.75,54.39Z"/><path class="cls-1" d="M91.39,26.87c1.38-2.93.84-7.34-1.67-11.29s-6.28-6.31-9.51-6.29c-1.38,2.92-.84,7.34,1.67,11.28S88.16,26.88,91.39,26.87Z"/><path class="cls-1" d="M111.82,64.59c0,.76.06,1.51.06,2.27s0,1.33,0,2a46.6,46.6,0,0,1-17.66,34.63"/><path class="cls-1" d="M77.44,21.8a46.76,46.76,0,0,1,33.89,37.89"/><path class="cls-1" d="M33.62,84s3.87,3.64,14.91,6"/><line class="cls-1" x1="84.67" y1="58.77" x2="98.48" y2="62.55"/><path class="cls-1" d="M75.14,113a49.13,49.13,0,0,1-6.1,1c-1.62.16-3.26.25-4.92.25"/><path class="cls-1" d="M48.88,28.13a46.63,46.63,0,0,1,5.94-1.71,48.29,48.29,0,0,1,4.86-.81"/></svg>