<?xml version="1.0" encoding="utf-8"?>
<!-- Generator: Adobe Illustrator 26.2.1, SVG Export Plug-In . SVG Version: 6.00 Build 0)  -->
<svg version="1.1" id="Layer_1" xmlns="http://www.w3.org/2000/svg" xmlns:xlink="http://www.w3.org/1999/xlink" x="0px" y="0px"
	 viewBox="0 0 131.6 128" style="enable-background:new 0 0 131.6 128;" xml:space="preserve">
<style type="text/css">
	.st0{fill:#FFFFFF;stroke:#FFFFFF;stroke-width:3;stroke-miterlimit:10;}
	.st1{fill:#FFFFFF;stroke:#FFFFFF;stroke-width:4;stroke-miterlimit:10;}
</style>
<path class="st0" d="M31.9,118.7c0.2,0.1,0.4,0.2,0.6,0.2c0.3,0,0.6-0.2,0.8-0.4c0.3-0.5,0.2-1.1-0.3-1.4l0,0
	c-2.5-1.8-4.4-4.3-5.4-7.2c-0.2-0.5-0.8-0.8-1.3-0.6l0,0c-0.5,0.2-0.8,0.8-0.6,1.3C26.9,113.8,29.1,116.7,31.9,118.7z"/>
<path class="st0" d="M127.3,67c0,0.6,0.4,1,1,1c0.6,0,1-0.4,1-1c0-3.2-1.1-6.4-2.9-9.1c-0.3-0.5-0.9-0.6-1.4-0.3l0,0
	c-0.5,0.3-0.6,0.9-0.3,1.4C126.3,61.4,127.3,64.2,127.3,67z"/>
<path class="st0" d="M32.5,17c0.2,0,0.4-0.1,0.6-0.2c1.6-1.1,3.4-1.8,5.4-2.1c0.6-0.1,0.9-0.6,0.8-1.2c-0.1-0.6-0.6-0.9-1.2-0.8
	c-2.2,0.3-4.3,1.2-6.2,2.4c-0.5,0.3-0.6,0.9-0.3,1.4l0,0C31.9,16.8,32.2,17,32.5,17z"/>
<path class="st0" d="M60.6,56.4c-2.5,0-4.6,2.1-4.6,4.6s2.1,4.6,4.6,4.6s4.6-2.1,4.6-4.6l0,0C65.1,58.5,63.1,56.4,60.6,56.4z
	 M60.6,63.6c-1.4,0-2.6-1.2-2.6-2.6c0-1.4,1.2-2.6,2.6-2.6c1.4,0,2.6,1.2,2.6,2.6l0,0C63.2,62.5,62,63.6,60.6,63.6z"/>
<path class="st0" d="M66.5,49.9c-9.4,0-17,7.6-17,17s7.6,17,17,17s17-7.6,17-17S75.9,49.9,66.5,49.9z M66.5,82c-8.3,0-15-6.7-15-15
	s6.7-15,15-15s15,6.7,15,15S74.8,82,66.5,82L66.5,82z"/>
<path class="st1" d="M2.3,76.8c0,4.5,3.6,8.1,8.1,8.1c1.6,0,3.2-0.5,4.6-1.4c3.2,2.2,6.7,4.1,10.3,5.6c-0.8,3.8-1.2,7.7-1.1,11.6
	c0,0.6,0.4,1,1,1l0,0c0.6,0,1-0.4,1-1c0-3.6,0.3-7.2,1-10.8c7.9,3,16.1,4.9,24.4,5.8c2,2.3,4,4.5,6.1,6.6c0.4,0.4,1,0.4,1.4,0
	s0.4-1,0-1.4l0,0c-1.5-1.5-3.1-3.2-4.6-4.8c4,0.4,8.1,0.6,12.3,0.6s8.3-0.2,12.4-0.6c-12.6,14.1-26.6,23.1-37.5,23.4
	c-0.6,0-1,0.4-1,1s0.4,1,1,1l0,0c11.8-0.3,27.1-10.2,40.4-25.7c8.4-0.9,16.6-2.9,24.4-5.8c0.7,3.4,1,6.9,1,10.4v0.5h-0.4
	c-4.5,0-8.1,3.6-8.1,8.1c0,2.7,1.3,5.2,3.5,6.7c-0.6,0.6-1.3,1.1-2,1.6c-2,1.3-4.3,2.1-6.7,2.2c-5.6,0.4-12.5-1.8-19.9-6.5
	c-0.5-0.3-1.1-0.1-1.4,0.3s-0.1,1.1,0.3,1.4c7.2,4.5,13.9,6.8,19.7,6.8c0.5,0,1,0,1.4,0c2.8-0.2,5.5-1,7.8-2.6
	c1-0.7,1.9-1.5,2.7-2.3c0.9,0.3,1.8,0.5,2.7,0.5c4.5,0.2,8.2-3.3,8.4-7.8c0.1-3.8-2.3-7.1-5.9-8.1v-0.8c0-3.7-0.4-7.5-1.1-11.1
	c7.4-3.1,13.3-7.1,16.9-11.6c0.4-0.4,0.4-1,0-1.4s-1-0.4-1.4,0c-0.1,0.1-0.1,0.2-0.2,0.3c-3.3,4.3-8.8,8-15.8,10.9
	c-1.6-6.9-4-13.7-7.2-20.1c3.1-6.4,5.5-13.2,7.2-20.1c3.2,1.4,6.3,3,9.2,5c0.5,0.3,1.1,0.2,1.4-0.3s0.2-1.1-0.3-1.4
	c-3.1-2.1-6.4-3.9-9.9-5.3c0.2-0.8,0.3-1.6,0.4-2.4c2.1-13-0.4-22.7-7.1-27.2c-2.3-1.5-5-2.4-7.8-2.6c-1.2-4.7-5.7-7.1-10-5.9
	c-3.9,1.2-6.4,5.1-5.7,9.2c-4,2-7.9,4.4-11.4,7.2c-6.4-5-12.9-8.5-18.8-10.1c-0.5-0.1-1.1,0.2-1.2,0.7c-0.1,0.5,0.2,1,0.7,1.2
	c5.6,1.5,11.7,4.8,17.8,9.4c-4.9,4-9.5,8.5-13.7,13.4c-8.4,0.9-16.6,2.9-24.4,5.9c-1.9-9.7-1.3-17.9,2.1-23.3
	c0.3-0.5,0.1-1.1-0.3-1.4c-0.5-0.3-1.1-0.1-1.4,0.3l0,0c-3.7,5.8-4.3,14.8-2.3,25.1C12.5,50.3,4.4,58.2,4.4,67
	c0,1.3,0.2,2.6,0.5,3.9C3.3,72.4,2.3,74.5,2.3,76.8z M113.3,108.8c0,3.4-2.7,6.1-6.1,6.1s-6.1-2.7-6.1-6.1s2.7-6.1,6.1-6.1l0,0
	C110.5,102.7,113.3,105.4,113.3,108.8L113.3,108.8z M4.3,76.8c0-3.4,2.7-6.1,6.1-6.1s6.1,2.7,6.1,6.1s-2.7,6.1-6.1,6.1
	S4.3,80.2,4.3,76.8L4.3,76.8z M27.6,87.9c1.5-6.4,3.6-12.7,6.4-18.6c2.5,4.9,5.3,9.7,8.3,14.3c2.3,3.5,4.8,6.8,7.4,9.9
	C42.1,92.4,34.7,90.6,27.6,87.9z M66.9,94.6c-4.8,0-9.5-0.3-14.3-0.8c-3.1-3.6-6-7.4-8.6-11.4c-3.3-4.9-6.3-10.1-8.9-15.4
	c4.7-9.6,10.6-18.7,17.5-26.8c9.5-1,19-1,28.5,0c3.1,3.6,6,7.4,8.6,11.4c3.3,4.9,6.3,10.1,8.9,15.5C96,72.4,93,77.6,89.7,82.5
	c-2.7,3.9-5.5,7.7-8.6,11.4C76.4,94.3,71.6,94.6,66.9,94.6z M106.2,87.9c-7.1,2.7-14.6,4.6-22.1,5.5c2.6-3.1,5-6.4,7.4-9.9
	c3.1-4.6,5.9-9.3,8.4-14.2C102.6,75.2,104.7,81.5,106.2,87.9z M99.8,64.7c-2.5-4.9-5.3-9.7-8.4-14.3c-2.3-3.5-4.8-6.8-7.4-9.9
	c7.6,1,15,2.8,22.1,5.5C104.7,52.5,102.6,58.7,99.8,64.7z M84.8,8.8c0.5-0.1,1-0.2,1.4-0.2c2.8,0,5.3,1.9,5.9,4.7l0,0
	c0.8,3.3-1.2,6.6-4.5,7.4c-3.3,0.8-6.6-1.2-7.4-4.5C79.5,12.9,81.5,9.6,84.8,8.8L84.8,8.8z M79,18.3c1.4,2.8,4.2,4.5,7.3,4.5
	c0.6,0,1.3-0.1,1.9-0.2c3.7-0.9,6.2-4.2,6.2-8c2.3,0.2,4.5,1,6.4,2.2c6,4,8.2,13,6.3,25.2c-0.1,0.7-0.2,1.3-0.4,2
	c-7.9-3-16.1-4.9-24.4-5.8c-4.2-4.9-8.8-9.3-13.7-13.4C71.7,22.4,75.2,20.2,79,18.3L79,18.3z M67,26.1c4.4,3.6,8.5,7.6,12.2,11.9
	c-4-0.4-8.2-0.6-12.3-0.6s-8.4,0.2-12.4,0.6c3.8-4.3,7.9-8.3,12.4-11.9H67z M49.7,40.5c-2.6,3.1-5,6.4-7.4,9.9
	c-3.1,4.6-5.9,9.3-8.3,14.3c-2.8-6-4.9-12.2-6.4-18.7C34.7,43.3,42.1,41.5,49.7,40.5z M6.4,67c0-8,7.4-15.2,19.3-20.2
	c1.6,7,4,13.7,7.1,20.2c-3.1,6.4-5.5,13.2-7.2,20.2c-3.2-1.4-6.3-3-9.2-5c3-3.3,2.7-8.5-0.7-11.4c-1.5-1.3-3.4-2-5.4-2
	c-1.3,0-2.6,0.3-3.7,0.9C6.5,68.7,6.4,67.9,6.4,67z"/>
</svg>
