<?xml version="1.0" encoding="UTF-8"?>
<svg xmlns="http://www.w3.org/2000/svg" xmlns:xlink="http://www.w3.org/1999/xlink" preserveAspectRatio="xMidYMid meet" version="1.0" viewBox="291.8 245.3 1875.4 1962.0" width="1875.4" zoomAndPan="magnify"><g fill="#ffffff" id="change1_1"><path d="M 1666.703125 1226.21875 C 1666.703125 1261.050781 1665.632812 1295.539062 1663.738281 1329.660156 C 1656.277344 1335.410156 1648.664062 1341.121094 1640.960938 1346.820312 C 1643.519531 1307.511719 1644.902344 1267.28125 1644.902344 1226.21875 C 1644.902344 986.046875 1599.644531 772.972656 1526.222656 623.097656 C 1535.960938 618.519531 1545.101562 612.914062 1553.496094 606.359375 C 1623.195312 775.304688 1666.703125 994.144531 1666.703125 1226.21875 Z M 1681.179688 1488.800781 C 1771.824219 1428.21875 1851.542969 1363.511719 1917.855469 1297.703125 C 1959.957031 1365.550781 1996.773438 1456.769531 1959.804688 1534.992188 C 1941.808594 1573.03125 1908.347656 1602.839844 1861.835938 1623.78125 C 1836.023438 1598.21875 1800.574219 1582.390625 1761.480469 1582.390625 C 1719.515625 1582.390625 1681.855469 1600.691406 1655.71875 1629.589844 C 1665.902344 1584.28125 1674.433594 1537.25 1681.179688 1488.800781 Z M 1619.308594 1528.371094 C 1627.703125 1523.210938 1636.058594 1518.039062 1644.292969 1512.8125 C 1636.371094 1562.871094 1626.484375 1611.332031 1614.824219 1657.769531 C 1606.824219 1657.339844 1598.792969 1656.851562 1590.667969 1656.210938 C 1601.851562 1615.832031 1611.414062 1573.050781 1619.308594 1528.371094 Z M 1557.179688 1652.980469 C 1516.015625 1648.339844 1473.492188 1641.109375 1430 1631.390625 C 1482.742188 1606.109375 1533.332031 1579.199219 1581.539062 1551.019531 C 1574.5 1586.460938 1566.347656 1620.511719 1557.179688 1652.980469 Z M 976.199219 760.730469 C 1016.050781 767.136719 1056.847656 775.898438 1098.167969 786.582031 C 1076.128906 796.101562 1054.148438 805.972656 1032.308594 816.304688 C 1006.019531 828.738281 979.164062 842.277344 949.496094 858.09375 C 957.375 824.121094 966.304688 791.59375 976.199219 760.730469 Z M 1420.179688 816.304688 C 1398.757812 806.164062 1377.308594 796.578125 1355.832031 787.261719 C 1420.84375 769.914062 1483.597656 757.914062 1542.796875 752.039062 C 1558.058594 798.335938 1571.058594 848.601562 1581.636719 901.859375 C 1528.335938 870.648438 1474.199219 841.832031 1420.179688 816.304688 Z M 1046.238281 845.757812 C 1080.25 829.671875 1114.578125 814.761719 1149.007812 800.691406 C 1159.546875 803.820312 1170.070312 806.855469 1180.648438 810.238281 C 1136.589844 827.207031 1092.050781 846.179688 1047.25 867.371094 C 1011 884.542969 974.582031 903.335938 938.625 923.472656 C 939.539062 915.078125 940.527344 906.234375 941.519531 899.410156 C 980.300781 878.257812 1013.738281 861.128906 1046.238281 845.757812 Z M 1202.796875 762.234375 C 1210.617188 764.957031 1218.449219 767.921875 1226.269531 770.765625 C 1236.929688 774.625 1247.589844 778.472656 1258.257812 782.546875 C 1266.257812 785.609375 1274.257812 788.84375 1282.257812 792.027344 C 1290.140625 795.140625 1298.019531 798.160156 1305.898438 801.410156 C 1339.378906 815.183594 1372.839844 829.957031 1406.234375 845.757812 C 1467.183594 874.546875 1528.335938 907.398438 1588.136719 943.417969 C 1589.015625 949.890625 1589.921875 957.828125 1590.761719 965.707031 C 1532.128906 928.753906 1469.851562 894.65625 1405.246094 864.121094 C 1363.28125 844.253906 1320.878906 826.40625 1278.457031 810.226562 C 1270.367188 807.125 1262.289062 803.957031 1254.199219 801.019531 C 1245.859375 797.972656 1237.539062 795.15625 1229.210938 792.269531 C 1218.75 788.640625 1208.277344 784.902344 1197.839844 781.519531 C 1189.320312 778.742188 1180.828125 776.292969 1172.328125 773.691406 C 1164.039062 771.144531 1155.738281 768.476562 1147.480469 766.09375 C 1094.917969 750.914062 1042.949219 738.847656 992.355469 730.25 C 993.183594 726.878906 994.019531 723.359375 994.863281 719.78125 C 996.09375 714.597656 997.398438 709.058594 998.703125 704.046875 C 1058.207031 717.195312 1118.199219 734.042969 1178.347656 754.082031 C 1186.5 756.804688 1194.648438 759.390625 1202.796875 762.234375 Z M 1523.273438 710.996094 C 1524.140625 714.394531 1524.976562 717.710938 1525.832031 720.921875 C 1456.863281 728.746094 1383.46875 744.429688 1307.570312 766.949219 C 1296.609375 762.507812 1285.648438 758.28125 1274.679688 754.070312 C 1357.078125 726.675781 1438.992188 705.46875 1518.070312 691.480469 C 1519.804688 697.453125 1521.550781 704.292969 1523.273438 710.996094 Z M 1465.855469 636.664062 C 1475.808594 636.664062 1485.519531 635.636719 1494.902344 633.6875 C 1499.210938 642.40625 1503.433594 651.359375 1507.550781 660.554688 C 1416.214844 676.992188 1321.429688 702.476562 1226.410156 736.207031 C 1153.539062 710.261719 1080.820312 689.164062 1008.738281 673.105469 C 1072.660156 524.027344 1162.039062 431.121094 1260.878906 431.121094 C 1284.9375 431.121094 1308.449219 436.644531 1331.167969 447.113281 C 1326.039062 461.820312 1323.097656 477.539062 1323.097656 493.980469 C 1323.097656 572.667969 1387.140625 636.664062 1465.855469 636.664062 Z M 909.40625 1226.21875 C 909.40625 1135.332031 916.269531 1048.066406 928.738281 966.644531 C 972.359375 941.28125 1016.898438 917.773438 1061.179688 896.835938 C 1118.070312 869.917969 1174.460938 846.746094 1229.890625 826.828125 C 1283.808594 845.976562 1337.898438 868.292969 1391.3125 893.574219 C 1464.273438 928.050781 1534.089844 967.171875 1598.980469 1009.785156 C 1607.609375 1078.65625 1612.332031 1151.191406 1612.332031 1226.21875 C 1612.332031 1275.929688 1610.195312 1324.511719 1606.335938 1371.710938 C 1533.480469 1422.421875 1451.273438 1470.300781 1361.765625 1512.660156 C 1316.597656 1534.019531 1271.300781 1553.089844 1226.25 1570.011719 C 1181.210938 1553.089844 1135.910156 1534.019531 1090.761719 1512.660156 C 1030.308594 1484.0625 973.203125 1452.929688 920.023438 1420.128906 C 913.117188 1358.03125 909.40625 1293.089844 909.40625 1226.21875 Z M 1668.515625 747.164062 C 1816.226562 747.164062 1894.484375 779.378906 1930.203125 854.898438 C 1964.042969 926.464844 1941.457031 1018.058594 1875.917969 1114.152344 L 1874.941406 1113.242188 C 1816.199219 1058.738281 1769.792969 1015.648438 1686.90625 962.511719 L 1680.433594 958.355469 C 1669.910156 884.390625 1655.207031 813.773438 1636.882812 747.679688 C 1647.664062 747.367188 1658.28125 747.164062 1668.515625 747.164062 Z M 1692.785156 1068.625 C 1750.929688 1109.960938 1782.035156 1133.902344 1825.246094 1179.632812 C 1789.5625 1220.832031 1746.609375 1262.191406 1697.644531 1302.582031 C 1698.632812 1277.320312 1699.285156 1251.902344 1699.285156 1226.21875 C 1699.285156 1172.699219 1696.996094 1120.089844 1692.785156 1068.625 Z M 1845.191406 1153.320312 C 1798.976562 1104.980469 1764.363281 1079.363281 1699.867188 1033.6875 C 1699.40625 1028.636719 1698.902344 1022.867188 1698.390625 1016.882812 C 1698.171875 1014.171875 1697.929688 1011.4375 1697.683594 1008.675781 C 1760.761719 1051.738281 1800.398438 1088.5 1852.761719 1137.113281 L 1855.605469 1139.742188 C 1852.113281 1144.402344 1848.644531 1148.910156 1845.191406 1153.320312 Z M 791.074219 950.8125 C 710.085938 1003.285156 638.195312 1058.167969 576.363281 1113.832031 C 510.984375 1017.855469 488.476562 926.398438 522.273438 854.898438 C 560.011719 775.125 665.828125 731.183594 820.242188 731.183594 C 825.039062 731.183594 830.027344 731.414062 834.894531 731.496094 C 816.367188 799.800781 801.574219 873.316406 791.074219 950.8125 Z M 779.4375 1059.550781 C 775.125 1113.761719 772.753906 1169.390625 772.753906 1226.21875 C 772.753906 1257.429688 773.507812 1288.261719 774.832031 1318.730469 C 719.722656 1275.0625 671.757812 1230.050781 632.222656 1185.160156 C 673.652344 1143.480469 722.890625 1101.3125 779.4375 1059.550781 Z M 785.335938 993.523438 C 784.066406 1002.027344 782.839844 1010.394531 781.957031 1017.421875 C 715.582031 1064.777344 658.363281 1112.621094 610.859375 1159.96875 C 605.621094 1153.511719 600.621094 1147.070312 595.75 1140.640625 C 650.9375 1090.492188 714.460938 1040.957031 785.335938 993.523438 Z M 1741.667969 671.683594 C 1919.25 671.683594 2037.464844 723.183594 2083.5625 820.613281 C 2132.460938 924 2083.359375 1062.054688 1964.558594 1202.269531 L 1963.679688 1201.261719 L 1951.449219 1215.191406 C 1935.972656 1232.800781 1922.582031 1247.28125 1909.257812 1260.78125 L 1899.941406 1270.230469 L 1900.601562 1271.242188 C 1840.398438 1331.070312 1768.410156 1390.3125 1686.566406 1446.441406 C 1680.785156 1450.410156 1674.855469 1454.320312 1668.976562 1458.25 C 1662.800781 1462.382812 1656.710938 1466.53125 1650.425781 1470.621094 C 1642.464844 1475.820312 1634.324219 1480.941406 1626.214844 1486.070312 C 1619.984375 1489.992188 1613.742188 1493.910156 1607.433594 1497.800781 C 1601.445312 1501.480469 1595.378906 1505.121094 1589.3125 1508.769531 C 1531.789062 1543.320312 1470.675781 1576.238281 1406.289062 1606.699219 C 1397.335938 1610.929688 1388.371094 1614.949219 1379.410156 1619.039062 C 1344.339844 1609.820312 1308.800781 1599.082031 1272.96875 1586.832031 C 1307.199219 1573.140625 1341.488281 1558.289062 1375.683594 1542.121094 C 1458.003906 1503.160156 1533.941406 1459.949219 1602.3125 1414.242188 C 1608.191406 1410.308594 1614.054688 1406.371094 1619.824219 1402.402344 C 1625.835938 1398.261719 1631.753906 1394.082031 1637.644531 1389.902344 C 1645.457031 1384.351562 1653.242188 1378.800781 1660.824219 1373.199219 C 1666.742188 1368.832031 1672.527344 1364.429688 1678.292969 1360.03125 C 1684.0625 1355.628906 1689.761719 1351.222656 1695.398438 1346.789062 C 1914.714844 1174.171875 2024.96875 979.058594 1959.644531 840.980469 C 1918.300781 753.570312 1828.523438 714.582031 1668.515625 714.582031 C 1656.425781 714.582031 1643.925781 714.785156 1631.089844 715.207031 C 1627.664062 704.128906 1623.273438 690.816406 1619.390625 679.011719 C 1662.34375 674.148438 1703.398438 671.683594 1741.667969 671.683594 Z M 1465.855469 383.847656 C 1526.589844 383.847656 1576.003906 433.246094 1576.003906 493.980469 C 1576.003906 512.585938 1571.316406 530.09375 1563.136719 545.476562 C 1560.214844 550.988281 1556.773438 556.175781 1552.980469 561.078125 C 1549.082031 566.140625 1544.75 570.828125 1540.050781 575.132812 C 1531.558594 582.894531 1521.878906 589.351562 1511.273438 594.171875 C 1505.992188 596.582031 1500.480469 598.558594 1494.78125 600.117188 C 1489.609375 601.527344 1484.3125 602.609375 1478.882812 603.257812 C 1474.605469 603.761719 1470.269531 604.097656 1465.855469 604.097656 C 1405.097656 604.097656 1355.683594 554.6875 1355.683594 493.980469 C 1355.683594 483.417969 1357.253906 473.234375 1360.042969 463.550781 C 1361.546875 458.351562 1363.429688 453.316406 1365.648438 448.441406 C 1367.992188 443.292969 1370.699219 438.339844 1373.773438 433.652344 C 1386.613281 414.140625 1405.503906 399 1427.765625 390.769531 C 1433.507812 388.640625 1439.464844 386.933594 1445.613281 385.785156 C 1451.8125 384.632812 1458.164062 383.96875 1464.679688 383.902344 C 1465.085938 383.902344 1465.464844 383.847656 1465.855469 383.847656 Z M 868.242188 732.472656 L 871.746094 720.09375 C 876.542969 703.207031 881.386719 686.429688 886.628906 670.234375 L 892.664062 651.5625 L 891.75 651.441406 C 968.734375 424.554688 1090.007812 277.832031 1226.269531 277.832031 C 1288.828125 277.832031 1349.277344 309.585938 1404.390625 365.378906 C 1380.058594 377.050781 1359.554688 395.34375 1345.226562 418 C 1318.148438 405.378906 1289.960938 398.539062 1260.878906 398.539062 C 1045.519531 398.539062 876.828125 762.113281 876.828125 1226.21875 C 876.828125 1285.230469 879.585938 1342.589844 884.789062 1397.808594 C 858.253906 1380.5 832.957031 1362.742188 808.734375 1344.730469 C 806.574219 1305.871094 805.332031 1266.382812 805.332031 1226.21875 C 805.332031 1146.640625 809.757812 1069.355469 817.992188 995.445312 C 818.339844 993.15625 818.6875 990.855469 819.035156 988.578125 C 820.570312 978.492188 822.015625 968.957031 822.890625 962.09375 L 827.328125 927.453125 L 826.800781 927.792969 C 836.972656 858.867188 850.480469 793.351562 867.035156 732.417969 Z M 467.140625 1224.890625 C 470.832031 1229.242188 474.640625 1233.601562 478.453125 1237.953125 C 482.035156 1242.042969 485.539062 1246.121094 489.226562 1250.210938 C 497.019531 1258.839844 504.992188 1267.480469 513.257812 1276.089844 C 517.039062 1280.03125 521.054688 1283.949219 524.929688 1287.890625 C 528.941406 1291.960938 532.894531 1296.03125 537.011719 1300.089844 C 548.085938 1311.03125 559.46875 1321.929688 571.269531 1332.792969 C 561.449219 1375.332031 526.976562 1408.46875 483.722656 1416.3125 C 477.992188 1417.351562 472.113281 1417.960938 466.109375 1418.070312 C 465.417969 1418.082031 464.742188 1418.179688 464.046875 1418.179688 C 459.171875 1418.179688 454.40625 1417.75 449.695312 1417.132812 C 428.207031 1414.320312 408.652344 1405.359375 392.890625 1391.992188 C 388.527344 1388.289062 384.480469 1384.242188 380.742188 1379.910156 C 376.625 1375.148438 372.949219 1370.03125 369.683594 1364.609375 C 359.710938 1348.050781 353.863281 1328.75 353.863281 1308.0625 C 353.863281 1253.359375 394.007812 1207.972656 446.363281 1199.480469 C 453.066406 1207.941406 459.960938 1216.410156 467.140625 1224.890625 Z M 819.324219 1658.671875 C 809.628906 1659 800.003906 1659.21875 790.523438 1659.21875 C 636.367188 1659.21875 530.589844 1615.089844 492.6875 1534.992188 C 480.457031 1509.128906 475.90625 1480.582031 478.378906 1450.03125 C 533.675781 1444.492188 579.621094 1407.191406 598.015625 1356.742188 C 655.203125 1406.769531 720.003906 1455.550781 791.09375 1501.78125 C 798.464844 1556.171875 807.914062 1608.632812 819.324219 1658.671875 Z M 929.066406 1648.640625 C 902.652344 1652.449219 876.738281 1655.261719 851.445312 1657 C 841.796875 1614.550781 833.527344 1570.289062 826.773438 1524.460938 C 854.082031 1541.378906 882.25 1557.902344 911.222656 1573.960938 C 916.601562 1599.621094 922.550781 1624.539062 929.066406 1648.640625 Z M 949.582031 1594.75 C 973.386719 1607.300781 997.703125 1619.519531 1022.46875 1631.390625 C 1002.039062 1635.960938 981.816406 1639.992188 961.847656 1643.449219 C 957.507812 1627.589844 953.433594 1611.332031 949.582031 1594.75 Z M 1226.238281 1716.550781 C 1322.058594 1750.808594 1416.605469 1776.417969 1507.15625 1792.75 C 1443.703125 1934 1356.726562 2021.351562 1260.878906 2021.351562 C 1162.167969 2021.351562 1072.890625 1928.691406 1008.988281 1779.960938 C 1079.839844 1764.132812 1152.667969 1742.851562 1226.238281 1716.550781 Z M 725.785156 1781.28125 C 725.769531 1781.28125 725.726562 1781.28125 725.714844 1781.28125 C 541.199219 1781.261719 414.5 1728.199219 368.9375 1631.890625 C 340.910156 1572.632812 345.851562 1500.480469 378.878906 1422.3125 C 397.941406 1436.539062 420.613281 1446.121094 445.308594 1449.382812 C 442.859375 1484.730469 448.683594 1518.132812 463.246094 1548.921875 C 506.835938 1641.050781 623.070312 1691.789062 790.523438 1691.789062 C 802.503906 1691.789062 814.6875 1691.480469 826.984375 1690.972656 C 832.234375 1690.761719 837.5625 1690.410156 842.867188 1690.101562 C 848.261719 1689.789062 853.617188 1689.539062 859.070312 1689.140625 C 884.828125 1687.21875 911.21875 1684.160156 938.054688 1680.179688 C 943.769531 1679.332031 949.488281 1678.480469 955.246094 1677.539062 C 960.441406 1676.691406 965.664062 1675.792969 970.894531 1674.871094 C 1003.390625 1669.140625 1036.480469 1662.0625 1070.050781 1653.519531 C 1106.148438 1669.769531 1142.28125 1684.851562 1178.320312 1698.75 C 1116.71875 1719.410156 1055.878906 1736.289062 996.515625 1749.339844 C 991.375 1750.46875 986.25 1751.5625 981.128906 1752.628906 C 975.328125 1753.839844 969.5 1755.128906 963.730469 1756.261719 C 935.996094 1761.742188 908.625 1766.351562 881.707031 1770.039062 C 876.351562 1770.78125 871.09375 1771.328125 865.773438 1772 C 860.570312 1772.648438 855.351562 1773.328125 850.183594 1773.910156 C 807.355469 1778.71875 765.738281 1781.28125 725.785156 1781.28125 Z M 1226.269531 2174.667969 C 1090.097656 2174.667969 968.886719 2028.109375 891.894531 1801.449219 C 919.546875 1797.53125 947.632812 1792.710938 976.09375 1786.96875 C 1045.851562 1951.898438 1146.808594 2053.929688 1260.878906 2053.929688 C 1372.246094 2053.929688 1471.070312 1956.5 1540.605469 1798.371094 C 1550.570312 1799.929688 1560.523438 1801.46875 1570.367188 1802.789062 C 1488.199219 2025.949219 1362.101562 2174.667969 1226.269531 2174.667969 Z M 1615.488281 1775.328125 C 1610.152344 1774.789062 1604.777344 1774.171875 1599.414062 1773.550781 C 1593.457031 1772.871094 1587.484375 1772.132812 1581.488281 1771.351562 C 1572.222656 1770.160156 1562.894531 1768.839844 1553.523438 1767.429688 C 1547.648438 1766.550781 1541.78125 1765.671875 1535.867188 1764.710938 C 1530.679688 1763.859375 1525.492188 1762.992188 1520.28125 1762.082031 C 1440.914062 1748.199219 1358.214844 1726.941406 1274.160156 1698.75 C 1266.128906 1696.0625 1258.058594 1693.210938 1250.007812 1690.390625 C 1242.078125 1687.621094 1234.179688 1684.921875 1226.238281 1682.03125 C 1190.917969 1669.171875 1155.449219 1655 1119.949219 1639.800781 C 1112 1636.390625 1104.039062 1633 1096.089844 1629.480469 C 1088.410156 1626.089844 1080.738281 1622.550781 1073.058594 1619.050781 C 1064.097656 1614.949219 1055.140625 1610.929688 1046.179688 1606.699219 C 1009.910156 1589.53125 974.761719 1571.542969 940.582031 1552.980469 C 934.449219 1549.648438 928.269531 1546.339844 922.207031 1542.96875 C 915.769531 1539.390625 909.453125 1535.75 903.097656 1532.128906 C 874.925781 1516.070312 847.585938 1499.601562 821.105469 1482.769531 C 815.171875 1479 809.183594 1475.25 803.339844 1471.441406 C 797.433594 1467.601562 791.664062 1463.699219 785.851562 1459.820312 C 719.5 1415.570312 659.195312 1369.242188 606.042969 1322.0625 C 600.773438 1317.390625 595.582031 1312.710938 590.460938 1308.023438 C 584.503906 1302.570312 578.578125 1297.121094 572.816406 1291.660156 C 566.707031 1285.859375 560.824219 1280.050781 554.9375 1274.242188 C 550.933594 1270.292969 546.804688 1266.351562 542.902344 1262.402344 C 538.976562 1258.410156 535.285156 1254.421875 531.464844 1250.441406 C 523.953125 1242.601562 516.625 1234.75 509.53125 1226.910156 C 505.890625 1222.882812 502.273438 1218.851562 498.742188 1214.820312 C 494.9375 1210.46875 491.207031 1206.140625 487.535156 1201.800781 C 487.074219 1201.25 486.636719 1200.699219 486.175781 1200.160156 C 481.070312 1194.101562 475.921875 1188.039062 471.082031 1181.992188 C 466.707031 1176.519531 462.644531 1171.082031 458.492188 1165.632812 C 361.394531 1038.222656 324.308594 914.96875 368.945312 820.613281 C 414.34375 724.578125 540.929688 671.683594 725.386719 671.683594 C 764.753906 671.683594 806.507812 674.160156 849.757812 679.050781 C 847.777344 685.632812 845.835938 692.265625 843.914062 698.941406 C 664.25 694 538.265625 744.914062 492.828125 840.980469 C 453.386719 924.394531 478.125 1028.648438 552.121094 1136.171875 C 555.304688 1140.789062 558.578125 1145.421875 561.9375 1150.050781 C 565.105469 1154.410156 568.28125 1158.769531 571.605469 1163.140625 C 576.820312 1170 582.285156 1176.851562 587.882812 1183.722656 C 591.316406 1187.929688 594.816406 1192.132812 598.394531 1196.339844 C 601.960938 1200.539062 605.578125 1204.742188 609.289062 1208.941406 C 655.148438 1260.882812 711.683594 1312.621094 777.214844 1362.300781 C 782.863281 1366.582031 788.460938 1370.878906 794.242188 1375.132812 C 799.90625 1379.292969 805.757812 1383.402344 811.546875 1387.53125 C 836.363281 1405.230469 862.230469 1422.640625 889.257812 1439.609375 C 895.261719 1443.382812 901.398438 1447.089844 907.503906 1450.820312 C 913.363281 1454.390625 919.167969 1457.992188 925.121094 1461.53125 C 972.8125 1489.851562 1023.480469 1516.871094 1076.828125 1542.121094 C 1111.019531 1558.289062 1145.308594 1573.132812 1179.527344 1586.832031 C 1187.230469 1589.910156 1194.910156 1592.929688 1202.589844 1595.878906 C 1210.480469 1598.898438 1218.367188 1601.929688 1226.25 1604.820312 C 1261.917969 1617.929688 1297.398438 1629.550781 1332.527344 1639.800781 C 1340.828125 1642.21875 1349.097656 1644.539062 1357.363281 1646.800781 C 1365.730469 1649.082031 1374.113281 1651.398438 1382.429688 1653.519531 C 1439.125 1667.949219 1494.496094 1678.320312 1547.769531 1684.621094 C 1553.078125 1685.25 1558.410156 1685.941406 1563.679688 1686.480469 C 1569.625 1687.101562 1575.472656 1687.550781 1581.363281 1688.0625 C 1589.761719 1688.789062 1598.101562 1689.421875 1606.375 1689.921875 C 1611.953125 1690.261719 1617.535156 1690.601562 1623.046875 1690.839844 C 1621.851562 1695.679688 1620.890625 1700.609375 1620.214844 1705.640625 C 1619.335938 1712.019531 1618.710938 1718.492188 1618.710938 1725.121094 C 1618.710938 1735.421875 1619.875 1745.460938 1621.960938 1755.152344 C 1623.546875 1762.511719 1625.78125 1769.609375 1628.449219 1776.5 C 1624.128906 1776.109375 1619.835938 1775.78125 1615.488281 1775.328125 Z M 1834.65625 1807.160156 C 1815.183594 1824.550781 1789.578125 1835.21875 1761.480469 1835.21875 C 1736.832031 1835.21875 1714.125 1826.992188 1695.734375 1813.269531 C 1689.074219 1808.289062 1682.953125 1802.628906 1677.5625 1796.300781 C 1673.082031 1791.03125 1669.097656 1785.339844 1665.660156 1779.289062 C 1656.558594 1763.269531 1651.292969 1744.808594 1651.292969 1725.121094 C 1651.292969 1713.460938 1653.148438 1702.238281 1656.519531 1691.691406 C 1658.335938 1686.019531 1660.636719 1680.589844 1663.304688 1675.359375 C 1666.242188 1669.589844 1669.683594 1664.140625 1673.554688 1659.011719 C 1693.675781 1632.332031 1725.554688 1614.972656 1761.480469 1614.972656 C 1786.125 1614.972656 1808.820312 1623.210938 1827.183594 1636.941406 C 1832.179688 1640.679688 1836.863281 1644.789062 1841.144531 1649.300781 C 1845.164062 1653.511719 1848.875 1658 1852.179688 1662.789062 C 1864.394531 1680.539062 1871.597656 1701.992188 1871.597656 1725.121094 C 1871.597656 1741.082031 1868.105469 1756.21875 1861.957031 1769.929688 C 1859.085938 1776.339844 1855.632812 1782.429688 1851.636719 1788.128906 C 1846.734375 1795.121094 1841.019531 1801.480469 1834.65625 1807.160156 Z M 1899.222656 1761.769531 C 1902.351562 1750.050781 1904.164062 1737.8125 1904.164062 1725.121094 C 1904.164062 1697.492188 1896.160156 1671.769531 1882.511719 1649.890625 C 1932.453125 1625.871094 1968.878906 1591.980469 1989.273438 1548.910156 C 2024.84375 1473.589844 2008.351562 1378.820312 1941.621094 1274.222656 C 1948.6875 1266.839844 1955.878906 1259.101562 1963.488281 1250.671875 C 2086.105469 1395.671875 2129.871094 1533.941406 2083.5625 1631.890625 C 2054.054688 1694.238281 1990.382812 1738.339844 1899.222656 1761.769531 Z M 1984.722656 1225.621094 C 2113.933594 1073.363281 2167.207031 921.265625 2113.011719 806.679688 C 2061.148438 697.046875 1932.738281 639.101562 1741.667969 639.101562 C 1699.148438 639.101562 1653.28125 642.164062 1605.402344 647.945312 C 1597.046875 624.734375 1588.203125 602.339844 1578.925781 580.699219 C 1597.4375 556.636719 1608.570312 526.613281 1608.570312 493.980469 C 1608.570312 415.292969 1544.546875 351.265625 1465.855469 351.265625 C 1456.566406 351.265625 1447.507812 352.230469 1438.707031 353.933594 C 1374.410156 284.804688 1302.109375 245.25 1226.269531 245.25 C 1076.167969 245.25 942.945312 403.890625 860.355469 647.605469 C 813.453125 642.054688 768.058594 639.101562 725.386719 639.101562 C 527.625 639.101562 390.578125 698.605469 339.492188 806.679688 C 291.789062 907.535156 327.402344 1037.464844 424.703125 1170.980469 C 365.082031 1188.121094 321.292969 1243.019531 321.292969 1308.0625 C 321.292969 1342.101562 333.316406 1373.371094 353.296875 1397.929688 C 312.234375 1489.152344 305.765625 1574.5 339.492188 1645.820312 C 390.742188 1754.160156 527.902344 1813.839844 725.714844 1813.859375 C 725.738281 1813.859375 725.761719 1813.859375 725.785156 1813.859375 C 769.003906 1813.859375 814.121094 1810.898438 860.542969 1805.429688 C 943.144531 2048.851562 1076.289062 2207.25 1226.269531 2207.25 C 1378.894531 2207.25 1517.421875 2048.011719 1604.546875 1806.96875 C 1619.0625 1808.539062 1633.457031 1809.878906 1647.675781 1810.910156 C 1673.769531 1845.378906 1715.003906 1867.789062 1761.480469 1867.789062 C 1813.195312 1867.789062 1858.421875 1840.058594 1883.460938 1798.78125 C 1997.046875 1774.789062 2076.683594 1722.601562 2113.011719 1645.820312 C 2166.246094 1533.230469 2120.503906 1384.351562 1984.722656 1225.621094"/><path d="M 1226.308594 976.378906 C 1349.410156 976.378906 1449.558594 1076.539062 1449.558594 1199.671875 C 1449.558594 1322.75 1349.410156 1422.878906 1226.308594 1422.878906 C 1103.148438 1422.878906 1002.960938 1322.75 1002.960938 1199.671875 C 1002.960938 1076.539062 1103.148438 976.378906 1226.308594 976.378906 Z M 1482.128906 1199.671875 C 1482.128906 1058.578125 1367.371094 943.800781 1226.308594 943.800781 C 1085.191406 943.800781 970.382812 1058.578125 970.382812 1199.671875 C 970.382812 1340.710938 1085.191406 1455.460938 1226.308594 1455.460938 C 1367.371094 1455.460938 1482.128906 1340.710938 1482.128906 1199.671875"/><path d="M 1153.21875 1048.710938 C 1205.679688 1048.710938 1248.378906 1091.398438 1248.378906 1143.890625 C 1248.378906 1196.351562 1205.679688 1239.019531 1153.21875 1239.019531 C 1100.75 1239.019531 1058.050781 1196.351562 1058.050781 1143.890625 C 1058.050781 1091.398438 1100.75 1048.710938 1153.21875 1048.710938 Z M 1153.21875 1271.601562 C 1223.660156 1271.601562 1280.949219 1214.308594 1280.949219 1143.890625 C 1280.949219 1073.441406 1223.660156 1016.128906 1153.21875 1016.128906 C 1082.78125 1016.128906 1025.46875 1073.441406 1025.46875 1143.890625 C 1025.46875 1214.308594 1082.78125 1271.601562 1153.21875 1271.601562"/></g></svg>