
<svg width="121px" height="37px" viewBox="0 0 121 37" version="1.1" xmlns="http://www.w3.org/2000/svg" xmlns:xlink="http://www.w3.org/1999/xlink">
    <g id="Atoms" stroke="none" stroke-width="1" fill="none" fill-rule="evenodd">
        <g id="Atoms/1.Logo/Main/White" transform="translate(0.000000, -1.000000)">
            <g id="Group-44" transform="translate(0.000000, 1.000000)">
                <path d="M8.6174301,16.9467303 C8.6174301,16.9467303 8.59126419,18.1417433 8.8907767,18.8999432 C9.23006139,19.7599297 9.7441344,20.2315242 11.6765744,20.3808796 L11.6645381,12.3560971 C11.3632812,12.3559299 10.1287734,12.3620677 8.61900006,12.4727203 C8.62004669,14.4925974 8.6174301,16.9467303 8.6174301,16.9467303" id="Fill-1" fill="#FEFEFE"></path>
                <path d="M18.0055511,12.4725668 C16.2658666,12.3452056 14.8911094,12.3564584 14.8911094,12.3564584 L14.876631,20.3870345 C16.8701248,20.2439876 17.3903032,19.7708586 17.7325534,18.8999602 C18.0311937,18.1417604 18.0076443,16.9467474 18.0076443,16.9467474 C18.0076443,16.9467474 18.0048533,14.4926145 18.0055511,12.4725668" id="Fill-3" fill="#FEFEFE"></path>
                <path d="M22.3598908,15.7496372 L22.2888939,15.6488735 L22.2880217,15.649385 L20.416461,12.9942363 L20.416461,17.931316 C20.416461,19.9801777 19.7600454,21.1951388 19.2130034,21.7654511 C17.8652843,23.0828809 16.1545568,23.4214878 14.8710314,23.4994049 L14.8694615,24.3929793 C14.8694615,24.911972 14.9230144,25.3441817 15.1084435,25.6418693 C15.2863717,25.8573775 15.5576251,25.9799648 15.9684299,25.9799648 L17.7831233,25.9799648 L17.7831233,26.080217 L17.8549924,26.080217 L17.8549924,29.0296434 L13.3331734,29.0296434 L13.2935757,29.0296434 L8.767919,29.0296434 L8.767919,28.9293912 L8.69604996,28.9293912 L8.69604996,25.9799648 L10.51179,25.9799648 C11.4888253,25.9799648 11.6826275,25.2964426 11.6826275,24.2927271 L11.6814064,23.4941195 C10.406603,23.407848 8.73477551,23.0583293 7.41182685,21.7654511 C6.86304039,21.1951388 6.20871808,19.9801777 6.20871808,17.931316 L6.20871808,12.9949183 L4.26406728,15.7496372 L2.8423859,14.9460852 L2.85703881,14.8947656 L2.77051685,14.845833 L4.06520633,10.3048176 C4.06520633,10.3048176 4.75895195,10.1261369 6.16266607,9.9404657 C6.05608358,8.88270272 5.77104954,7.69706704 5.04102051,7.36715547 L5.14987072,6.85054976 C5.14987072,6.85054976 9.39537764,6.17418842 10.3952645,5.67463241 L10.6879738,7.26417532 C10.6879738,7.26417532 8.71768045,7.41318964 8.62051768,9.69171067 C9.89026232,9.59742586 11.4272482,9.53059107 13.2403716,9.53059107 C15.1222242,9.53059107 16.7073554,9.60254077 18.0043125,9.70245198 C17.9132552,7.41336014 15.9370308,7.26417532 15.9370308,7.26417532 L16.2274725,5.67463241 C17.2306737,6.17418842 21.4753084,6.85054976 21.4753084,6.85054976 L21.5829375,7.36715547 C20.8485475,7.6989425 20.5647345,8.89685396 20.4600709,9.95922036 C21.7702855,10.1379011 22.4174558,10.3048176 22.4174558,10.3048176 L22.4429239,10.3936465 C22.4727531,10.4008074 22.4894993,10.4050698 22.4894993,10.4050698 L23.784712,14.9460852 L22.3598908,15.7496372 Z M19.9923988,1.79838461 C16.2213671,1.52712399 13.3300335,0.0744901105 13.3300335,0.0744901105 C13.3300335,0.0744901105 10.4329434,1.52712399 6.66295836,1.79838461 C3.33535174,2.03725082 0.0677522758,0.135528013 0.0677522758,0.135528013 L0.0721132616,8.42542994 L0.0754276109,21.6360439 C0.0754276109,26.358809 0.395175092,27.7780254 3.23190915,31.0367333 C6.06986429,34.2976577 13.3300335,36.9294484 13.3300335,36.9294484 C13.3300335,36.9294484 20.5840973,34.2976577 23.423448,31.0367333 C26.260182,27.7780254 26.5746963,26.358809 26.5746963,21.6360439 L26.582895,8.42542994 L26.5851627,0.135528013 C26.5851627,0.135528013 23.3179121,2.03725082 19.9923988,1.79838461 L19.9923988,1.79838461 Z" id="Fill-5" fill="#FEFEFE"></path>
                <g id="Group-9">
                    <mask id="mask-2" fill="white">
                        <use xlink:href="#path-1"></use>
                    </mask>
                    <g id="Clip-8"></g>
                    <path d="M8.83568872,28.9635077 L17.7872227,28.9635077 L17.7830361,26.1465573 L17.7153536,26.1465573 L17.7153536,26.0463051 L15.9683427,26.0463051 C15.555619,26.0463051 15.2571531,25.9274688 15.05585,25.6833172 C14.8786196,25.4001217 14.8018662,25.0042279 14.8018662,24.3928259 L14.8034362,23.4371905 L14.8669321,23.4332691 C16.6667982,23.3241511 18.1129011,22.7471895 19.1651198,21.7187519 C19.5199296,21.3487736 20.3486913,20.2359401 20.3486913,17.9311626 L20.3486913,12.7814732 L22.3802129,15.6616779 L23.7052549,14.9143898 L22.434638,10.4599869 L22.3882372,10.4487341 L22.362769,10.3597347 C22.2073435,10.3223959 21.5678485,10.1771325 20.4505639,10.0247082 L20.3863702,10.0160129 L20.39265,9.95292902 C20.5341204,8.51819732 20.9084674,7.63655768 21.5060969,7.33034518 L21.4181795,6.90853577 C20.9440531,6.83198264 17.3507752,6.24240425 16.278496,5.77183271 L16.0166624,7.20554143 C16.7372717,7.29300635 18.0007365,7.90594283 18.0720823,9.69991157 L18.0750477,9.77441873 L17.9991666,9.76845134 C16.5199202,9.65455939 14.9189151,9.59676093 13.2402844,9.59676093 C11.6167766,9.59676093 10.0642656,9.65097895 8.62566364,9.75771003 L8.54960805,9.76333643 L8.5529224,9.68899977 C8.62897799,7.90355587 9.88965178,7.29300635 10.6083422,7.20554143 L10.3442409,5.77183271 C9.27475278,6.24257474 5.68077713,6.83215314 5.2068252,6.90853577 L5.11803552,7.33051568 C5.71269955,7.6351937 6.0866977,8.51069546 6.23008691,9.93400386 L6.23654117,9.99742872 L6.17182414,10.0061241 C4.96819205,10.1651977 4.28177288,10.3208614 4.11989309,10.3597347 L2.84979957,14.8141376 L2.93632153,14.8630702 L2.92184306,14.9145603 L4.24374508,15.6616779 L6.2764878,12.7823256 L6.2764878,17.9311626 C6.2764878,20.2398615 7.10507511,21.3501376 7.46128043,21.7202864 C8.49814842,22.7335497 9.92000424,23.3086359 11.6860291,23.4279837 L11.7490017,23.4324166 L11.7502228,24.2925737 C11.7502228,25.2033683 11.6003793,26.0463051 10.5117028,26.0463051 L8.76381968,26.0463051 L8.76800622,28.8632555 L8.83568872,28.8632555 L8.83568872,28.9635077 Z M17.9227621,29.0959838 L8.70032372,29.0959838 L8.69613718,28.9957316 L8.62845468,28.9957316 L8.62845468,25.9136585 L10.5117028,25.9136585 C11.4303009,25.9136585 11.6148578,25.2935612 11.6148578,24.2925737 L11.6136367,23.5556859 C9.84325089,23.4247443 8.41389417,22.8382348 7.36394323,21.8123548 C6.9953527,21.4292481 6.14094836,20.2872597 6.14094836,17.9311626 L6.14094836,13.2073745 L4.28421503,15.8376307 L2.76310318,14.9778147 L2.77775609,14.9263246 L2.69123413,14.877392 L4.01034512,10.2504462 L4.0478496,10.2407278 C4.05482718,10.2390229 4.73985083,10.064434 6.08861653,9.88353677 C5.98569726,8.92380953 5.71479282,7.74448224 5.01267411,7.42735794 L4.9640055,7.40519334 L5.09274181,6.79259785 L5.13896826,6.78526648 C5.1811826,6.77844661 9.38552182,6.10498372 10.3644759,5.61582801 L10.4457647,5.57507925 L10.7677799,7.32437779 L10.6931198,7.33017469 C10.6884099,7.33051568 10.207306,7.37092345 9.72271324,7.68208036 C9.09316133,8.08615809 8.74655017,8.73813837 8.69212507,9.61994851 C10.1124109,9.51679786 11.6422448,9.46445531 13.2402844,9.46445531 C14.8934469,9.46445531 16.4717749,9.5203783 17.933054,9.63068982 C17.8808966,8.74427626 17.5351577,8.08939753 16.9043847,7.68344433 C16.4190942,7.37092345 15.9365947,7.33051568 15.9317104,7.33017469 L15.8572248,7.32437779 L16.1769723,5.57507925 L16.258261,5.61582801 C17.2407039,6.10498372 21.4438221,6.77844661 21.4862109,6.78526648 L21.5324373,6.79259785 L21.6599525,7.40536383 L21.6112839,7.42735794 C20.9056764,7.7461872 20.6354697,8.93506233 20.533946,9.90246193 C21.7906077,10.0765393 22.4283582,10.2391934 22.4348125,10.2407278 L22.472317,10.2504462 L22.5065071,10.34098 L22.544186,10.3506984 L23.8639948,14.9778147 L22.3395686,15.8376307 L20.4840563,13.2070335 L20.4840563,17.9311626 C20.4840563,20.2829973 19.6298264,21.4278842 19.262457,21.8108203 C18.1971553,22.8520451 16.7432027,23.44043 14.9388012,23.5613123 L14.9372312,24.3929964 C14.9372312,24.9786533 15.0078792,25.3530646 15.1664446,25.6072755 C15.3351276,25.8113603 15.5992289,25.9136585 15.9683427,25.9136585 L17.8507186,25.9136585 L17.8550796,26.0139107 L17.9227621,26.0139107 L17.9227621,29.0959838 Z M0.135521996,0.249096021 L0.143022891,21.6360609 C0.143022891,26.2965946 0.43276679,27.71888 3.28345601,30.9936147 C5.99738471,34.1118331 12.8715194,36.6892352 13.3301207,36.8587092 C13.7881987,36.6892352 20.6567513,34.1118331 23.3719011,30.9936147 C26.2178805,27.7243359 26.5069266,26.3017095 26.5069266,21.6360609 L26.5151253,8.42544699 L26.517393,0.249096021 C25.9351142,0.565026839 22.9678994,2.07886912 19.9874272,1.86455447 C16.4525866,1.61017305 13.6530081,0.30416653 13.3301207,0.14850283 C13.0063611,0.30416653 10.2017239,1.61017305 6.66792989,1.86455447 C3.68536446,2.07886912 0.717800823,0.564856343 0.135521996,0.249096021 L0.135521996,0.249096021 Z M13.3301207,37.0000511 L13.3065714,36.9915263 C13.2336557,36.9650993 5.99721027,34.3162589 3.1803623,31.0795451 C0.30019282,27.7710521 0.00765789111,26.3361499 0.00765789111,21.6360609 L-1.74439433e-05,0.0189251597 L0.102552943,0.0785990866 C0.134998677,0.0975242463 3.38968962,1.96634114 6.65816128,1.73241935 C10.3697091,1.46525065 13.270288,0.0300074604 13.2990705,0.015515221 L13.3301207,0 L13.3609965,0.015515221 C13.389779,0.0300074604 16.284427,1.46525065 19.9973703,1.73241935 C23.2623532,1.96634114 26.5180907,0.0975242463 26.5505365,0.0785990866 L26.6529324,0.0189251597 L26.6424661,21.6360609 C26.6424661,26.3410943 26.35028,27.776508 23.4751693,31.0795451 C20.6567513,34.3162589 13.4262368,36.9650993 13.35367,36.9915263 L13.3301207,37.0000511 Z" id="Fill-7" fill="#FEFEFE" mask="url(#mask-2)"></path>
                </g>
                <path d="M8.83568872,28.8632725 L17.7153536,28.8632725 L17.7153536,26.1464039 L16.0402117,26.1464039 C15.571493,26.1464039 15.2477334,25.9926156 15.0506168,25.6763438 C14.8304743,25.4100276 14.7299972,24.9810573 14.7299972,24.2925907 L14.7516277,12.1905478 L14.8186124,12.1900363 C14.845825,12.1900363 17.5503339,12.1707702 20.1494815,12.5366566 L20.1789617,12.5407485 L20.3486913,12.7816607 L20.3486913,12.7814902 L20.4721944,12.9550561 L22.3092161,15.5609312 L23.6333858,14.8141547 L22.3884116,10.4489217 C22.1679202,10.3977726 21.5214476,10.2588176 20.4420164,10.1142362 L18.0040509,9.86360568 C16.5443417,9.75312367 14.965316,9.69703017 13.3123279,9.69703017 C11.6584676,9.69703017 10.079093,9.75329416 8.61833719,9.86394667 L6.18054611,10.1145772 C5.01616289,10.2705819 4.3508509,10.4218126 4.19176213,10.460004 L2.93632153,14.8630873 L4.17187604,15.5614427 L6.30631694,12.5380206 L6.33928599,12.5359746 L11.8037757,12.2139059 L11.8222663,24.3926724 C11.8222663,25.3036375 11.6722483,26.1464039 10.5837463,26.1464039 L8.83568872,26.1464039 L8.83568872,28.8632725 Z M17.8507186,28.9957486 L8.70032372,28.9957486 L8.70032372,26.0139278 L10.5837463,26.0139278 C11.5021699,26.0139278 11.6867268,25.3936599 11.6867268,24.3928429 L11.6684107,12.3543954 L6.38027926,12.6662343 L4.21234599,15.7373956 L2.77775609,14.9263416 L4.08221417,10.3507154 L4.11971865,10.3409971 C4.12652179,10.3392921 4.81241764,10.1643623 6.16432324,9.98312403 L8.60612643,9.73215254 C10.0721154,9.62098854 11.6549788,9.56472455 13.3123279,9.56472455 C14.9688048,9.56472455 16.5513193,9.62098854 18.0162616,9.73181155 L20.4582393,9.98278304 C21.6184359,10.1381057 22.2828757,10.2872906 22.4590596,10.3294033 L22.4974362,10.3386101 L23.7921257,14.877409 L22.2685717,15.7368841 L20.1009873,12.6635063 C17.7490204,12.3351292 15.3175092,12.3231944 14.8868182,12.322001 L14.8653622,24.2927612 C14.8653622,24.9488334 14.956594,25.3520587 15.1612114,25.6003022 C15.3391397,25.8846911 15.6168472,26.0139278 16.0402117,26.0139278 L17.8507186,26.0139278 L17.8507186,28.9957486 Z" id="Fill-10" fill="#FEFEFE"></path>
                <path d="M38.600516,8.01552121 L38.2673366,8.01552121 C37.8867098,8.01552121 37.0300377,8.01552121 36.5302688,8.17834578 C36.1496419,8.34117036 35.6974949,9.10874755 35.4714214,9.50395945 C35.4356613,9.5622694 35.3999012,9.60864456 35.3405918,9.58545698 L35.102482,9.50395945 C35.05486,9.48077186 35.0429982,9.44599049 35.05486,9.38768054 L35.6261492,7.24811451 C35.649873,7.08511944 35.7212187,7.03874428 35.7688406,7.03874428 C35.8401864,7.03874428 35.8878083,7.08511944 35.9591541,7.15502319 C36.1970895,7.387581 36.4350248,7.44572046 36.7683786,7.45731425 C37.410839,7.48050183 37.9104336,7.5270475 39.0765612,7.5270475 L39.7190216,7.5270475 C41.0278407,7.5270475 41.5274352,7.48050183 42.0748262,7.45731425 C42.3007252,7.44572046 42.7528722,7.28289589 42.9314982,7.15502319 C43.0265677,7.08511944 43.0741897,7.03874428 43.1455354,7.03874428 C43.2168811,7.03874428 43.2407793,7.08511944 43.2645031,7.22475643 C43.2884013,7.43412667 43.5263367,8.87601924 43.6215806,9.4342262 C43.6334425,9.50395945 43.6095443,9.52731753 43.5739586,9.53891132 L43.3358488,9.62040885 C43.2884013,9.63200264 43.2645031,9.59705077 43.2289174,9.52731753 C43.0623278,9.20166838 42.6220427,8.45744926 42.2888633,8.22489145 C41.955684,8.03887929 40.8849748,8.01552121 40.456726,8.01552121 L40.1233722,8.01552121 L40.1233722,14.2137668 C40.1233722,15.0976229 40.2425143,15.3301807 40.5280717,15.3301807 L41.2181541,15.3301807 C41.2656016,15.3301807 41.2894998,15.3767263 41.2894998,15.4348658 L41.2894998,15.6790174 C41.2894998,15.7487506 41.2656016,15.7952963 41.1705321,15.7952963 C41.0515644,15.7952963 40.6707632,15.7605149 39.3858423,15.7605149 C38.1722672,15.7605149 37.6724982,15.7952963 37.5059085,15.7952963 C37.4345628,15.7952963 37.410839,15.7721087 37.410839,15.6907817 L37.410839,15.423272 C37.410839,15.3535388 37.4464247,15.3301807 37.4940466,15.3301807 L38.1722672,15.3301807 C38.4102025,15.3301807 38.5530684,15.1905437 38.5647559,15.0162958 C38.600516,14.7138343 38.600516,11.1553927 38.600516,10.9228349 L38.600516,8.01552121 Z" id="Fill-12" fill="#FEFEFE"></path>
                <path d="M46.0359968,8.53882745 C46.0359968,8.14344506 45.9409273,7.95743291 45.6314718,7.95743291 L45.0840808,7.95743291 C45.0127351,7.95743291 44.9890113,7.93407483 44.9890113,7.85274779 L44.9890113,7.5852381 C44.9890113,7.51550485 45.0127351,7.49214677 45.107979,7.49214677 C45.2269467,7.49214677 45.7980614,7.52709864 46.9402908,7.52709864 C47.9396543,7.52709864 48.510769,7.49214677 48.6534605,7.49214677 C48.7249807,7.49214677 48.7487044,7.51550485 48.7487044,7.57364431 L48.7487044,7.86434158 C48.7487044,7.93407483 48.7249807,7.95743291 48.6534605,7.95743291 L48.153866,7.95743291 C47.7969629,7.95743291 47.5827513,8.16663264 47.5708894,8.41095475 C47.5588531,8.55042124 47.5351293,9.24826519 47.5351293,9.92275106 L47.5351293,11.3646436 C47.5351293,11.9460382 47.5469912,12.7717548 47.5708894,13.1439496 C47.606475,13.6787985 47.7017189,14.2138179 47.9872763,14.5860127 C48.3918013,15.1208616 49.0342618,15.3068737 49.6053765,15.3068737 C50.1527674,15.3068737 50.8189516,15.097674 51.1997529,14.7486668 C51.6518999,14.3069092 51.8898353,13.6324234 51.8898353,12.7835191 L51.8898353,10.6901578 C51.8898353,9.75992649 51.7945914,8.73660389 51.7590057,8.46909421 C51.7232456,8.16663264 51.5329322,7.95743291 51.2710986,7.95743291 L50.8428498,7.95743291 C50.7713297,7.95743291 50.7476059,7.92248103 50.7476059,7.87593537 L50.7476059,7.5852381 C50.7476059,7.51550485 50.7713297,7.49214677 50.8428498,7.49214677 C50.9618175,7.49214677 51.509034,7.52709864 52.2943603,7.52709864 C53.0318903,7.52709864 53.4126915,7.49214677 53.5079355,7.49214677 C53.6150413,7.49214677 53.6269032,7.52709864 53.6269032,7.5852381 L53.6269032,7.85274779 C53.6269032,7.92248103 53.6150413,7.95743291 53.5555574,7.95743291 L53.1271342,7.95743291 C52.6988854,7.95743291 52.6512634,8.28308205 52.6275397,8.41095475 C52.6036415,8.55042124 52.6036415,10.1784965 52.6036415,10.3297272 C52.6036415,10.4925518 52.5799177,12.5160094 52.5322957,12.9811251 C52.46095,13.9347144 52.1753927,14.655746 51.5329322,15.2139529 C51.0331632,15.655881 50.2717351,15.934814 49.3674411,15.934814 C48.7963264,15.934814 48.106244,15.8418931 47.654097,15.655881 C46.9640146,15.376607 46.4881438,14.8417581 46.2502084,14.097539 C46.0836188,13.5858777 46.0359968,12.8183005 46.0359968,11.2949104 L46.0359968,8.53882745 Z" id="Fill-14" fill="#FEFEFE"></path>
                <path d="M62.4306695,13.3648625 C62.4545677,13.3882206 62.4545677,13.4114082 62.4545677,13.4811414 C62.4069457,13.5508747 61.9310749,15.4814115 61.8597292,15.7952963 C61.5502737,15.7837025 58.1237599,15.7605149 56.9101847,15.7605149 C55.8393011,15.7605149 55.4108778,15.7952963 55.2681864,15.7952963 C55.1729424,15.7952963 55.1729424,15.7721087 55.1729424,15.6907817 L55.1729424,15.423272 C55.1729424,15.3535388 55.1729424,15.3301807 55.2442882,15.3301807 L55.7203334,15.3301807 C56.1485822,15.3301807 56.2199279,15.1673561 56.2199279,15.0162958 C56.2199279,14.8069256 56.2675499,11.8996119 56.2675499,11.2017679 L56.2675499,10.5506401 C56.2675499,9.80642101 56.2438261,8.57372817 56.2199279,8.37595173 C56.1962041,8.07366067 56.1485822,7.95738176 55.8393011,7.95738176 L55.3395321,7.95738176 C55.2681864,7.95738176 55.2442882,7.88764851 55.2442882,7.85269664 L55.2442882,7.58535745 C55.2442882,7.5154537 55.2681864,7.49226612 55.3395321,7.49226612 C55.4584998,7.49226612 55.8867486,7.5270475 56.9815305,7.5270475 C58.2664513,7.5270475 58.7662203,7.49226612 58.8612898,7.49226612 C58.9565337,7.49226612 58.9802575,7.53881178 58.9802575,7.59678074 L58.9802575,7.86429043 C58.9802575,7.91083609 58.9565337,7.95738176 58.8612898,7.95738176 L58.2188294,7.95738176 C57.8619263,7.95738176 57.8143043,8.07366067 57.8143043,8.38771602 C57.8143043,8.55054059 57.7666824,10.2948947 57.7666824,11.1088471 L57.7666824,12.1089821 C57.7666824,12.3181818 57.7666824,14.8301132 57.8143043,15.3301807 L58.4804885,15.3301807 C59.1468472,15.3301807 60.0035192,15.3301807 60.47939,15.2720412 C61.1457486,15.1791204 61.9071767,13.783603 62.0737664,13.3416749 C62.1213884,13.2951293 62.1451121,13.2719417 62.2164579,13.2951293 L62.4306695,13.3648625 Z" id="Fill-16" fill="#FEFEFE"></path>
                <path d="M68.7004239,12.097286 C68.5812818,11.7600431 67.7724061,9.10864525 67.7010604,8.87608744 C67.653264,8.73662094 67.6295402,8.6667172 67.5819183,8.6667172 C67.5105725,8.6667172 67.4629506,8.71326286 67.4271905,8.81794798 C67.379743,8.96900827 66.3088593,11.8299468 66.2254772,12.097286 L68.7004239,12.097286 Z M66.0588876,12.5625721 C65.9638181,12.8299113 65.3808415,14.4929384 65.3213577,14.8069938 C65.2974595,14.8999146 65.2974595,14.9930059 65.2974595,15.0511454 C65.2974595,15.2022057 65.4879473,15.3302489 65.7258827,15.3302489 L66.2254772,15.3302489 C66.3207212,15.3302489 66.3444449,15.3534365 66.3444449,15.3883883 L66.3444449,15.6790856 C66.3444449,15.7488188 66.3207212,15.7953645 66.2493754,15.7953645 C66.0827858,15.7953645 65.5830168,15.7604126 64.7500685,15.7604126 C63.8698471,15.7604126 63.6080135,15.7953645 63.4415983,15.7953645 C63.3700782,15.7953645 63.3700782,15.7256313 63.3700782,15.6441337 L63.3700782,15.4231697 C63.3700782,15.3534365 63.3938019,15.3302489 63.4415983,15.3302489 L63.798327,15.3302489 C64.1316807,15.3302489 64.3457179,15.1674243 64.5599295,14.8069938 C64.6787228,14.5976235 65.5353948,12.5044327 65.8922979,11.5274853 L67.0584255,8.48070505 C67.0823237,8.36442614 67.1536695,8.1550559 67.0823237,8.08532266 C67.0465637,8.05037078 67.0108036,7.98063754 67.0108036,7.94568567 C67.0108036,7.89914 67.0345273,7.85259434 67.1297713,7.82940676 C67.5105725,7.73648593 68.1650693,7.38747871 68.3077608,7.24801221 C68.3791065,7.17827897 68.4267284,7.1317333 68.4860379,7.1317333 C68.557558,7.1317333 68.60518,7.2711998 68.6289037,7.34110354 C68.8431154,8.06213507 69.7711332,10.6669872 69.9853448,11.4112063 C70.2709021,12.31825 71.0323303,14.4811741 71.1989199,14.7952295 C71.4131315,15.1906119 71.7224127,15.3302489 71.960348,15.3302489 L72.3411493,15.3302489 C72.4124951,15.3302489 72.4362188,15.3534365 72.4362188,15.4115759 L72.4362188,15.655898 C72.4362188,15.7256313 72.4124951,15.7953645 72.3172511,15.7953645 C72.1032139,15.7953645 71.8652786,15.7604126 70.5564595,15.7604126 C69.5569215,15.7604126 69.1525709,15.7953645 68.8907373,15.7953645 C68.7954934,15.7953645 68.7717696,15.7256313 68.7717696,15.655898 L68.7717696,15.4231697 C68.7717696,15.3534365 68.7954934,15.3302489 68.8668391,15.3302489 L69.1762947,15.3302489 C69.509474,15.3302489 69.6047179,15.21397 69.5331978,14.8999146 C69.4381283,14.4811741 68.9620831,12.9927359 68.8193916,12.5625721 L66.0588876,12.5625721 Z" id="Fill-18" fill="#FEFEFE"></path>
                <path d="M75.4338907,10.5041286 C75.4338907,12.4810405 75.5291346,14.1091157 75.5530328,14.4697167 C75.5767566,15.0511113 75.7196225,15.3302148 76.1478713,15.3302148 L76.4571524,15.3302148 C76.5523963,15.3302148 76.5523963,15.3767604 76.5523963,15.4348999 L76.5523963,15.7024096 C76.5523963,15.7721428 76.5523963,15.7953304 76.4571524,15.7953304 C76.3383592,15.7953304 75.6243786,15.760549 75.1722315,15.760549 C74.8629504,15.760549 74.0539003,15.7953304 73.9347582,15.7953304 C73.8873107,15.7953304 73.8634125,15.7721428 73.8634125,15.6906453 L73.8634125,15.399948 C73.8634125,15.3767604 73.8873107,15.3302148 73.9347582,15.3302148 L74.3394577,15.3302148 C74.6487388,15.3302148 74.8153285,15.0742989 74.8748123,14.3650316 C74.8866742,14.1556614 74.9580199,12.5275862 74.9580199,10.6669531 L74.9580199,9.19010869 C74.9580199,8.49226474 74.5534949,7.95741586 74.0300021,7.95741586 L73.6493753,7.95741586 C73.6017533,7.94582206 73.5778551,7.92246398 73.5778551,7.87591832 L73.5778551,7.56203347 C73.5778551,7.5154878 73.6017533,7.49212972 73.6493753,7.49212972 C73.7086847,7.49212972 73.8039286,7.50389401 74.0181403,7.5154878 C74.2321774,7.52708159 74.5534949,7.52708159 75.0769876,7.52708159 C75.2791629,7.52708159 75.4577889,7.5154878 75.6004804,7.50389401 C75.7552081,7.50389401 75.8623139,7.49212972 75.9336597,7.49212972 C76.0765256,7.49212972 76.1478713,7.52708159 76.219217,7.59681484 C76.3383592,7.71309375 78.6702655,10.5738618 78.9082009,10.899511 C79.0747905,11.0856936 80.9308261,13.341709 81.121314,13.5742669 L81.1687615,13.5742669 L81.1687615,12.3647616 C81.1687615,11.341439 81.1687615,10.759874 81.1448633,10.1784794 C81.121314,9.73672186 81.0735176,8.59694986 81.0140337,8.39934391 C80.9308261,8.12024043 80.669167,7.95741586 80.3834352,7.95741586 L80.0026339,7.95741586 C79.9312882,7.95741586 79.9312882,7.91087019 79.9312882,7.85273074 L79.9312882,7.58522105 C79.9312882,7.5154878 79.9312882,7.49212972 80.0265321,7.49212972 C80.1692235,7.49212972 80.5500248,7.52708159 81.3592494,7.52708159 C82.0730555,7.52708159 82.3586129,7.49212972 82.5014788,7.49212972 C82.5965483,7.49212972 82.620272,7.53867539 82.620272,7.57362726 L82.620272,7.84113695 C82.620272,7.91087019 82.5965483,7.95741586 82.5489263,7.95741586 L82.215747,7.95741586 C81.977986,7.95741586 81.8588439,8.14342801 81.8232583,8.57376227 C81.7636,9.36452705 81.6446323,11.3180809 81.6446323,12.5043986 L81.6446323,15.5743664 C81.6446323,15.737191 81.6446323,15.9000155 81.5019408,15.9000155 C81.3353512,15.9000155 81.1926597,15.8070947 81.0974158,15.7140034 C81.0021718,15.5977245 80.3597114,14.8766929 79.622007,14.0161949 C78.7890588,13.0160599 77.8612154,11.9228335 77.7183495,11.7368214 C77.5519343,11.5739968 75.6482768,9.24824814 75.5052364,9.08542357 L75.4338907,9.08542357 L75.4338907,10.5041286 Z" id="Fill-20" fill="#FEFEFE"></path>
                <path d="M87.1288336,12.3880856 C87.1406955,13.0160258 87.1645937,14.1556273 87.1645937,14.3649975 C87.1645937,14.9697502 87.3788053,15.202308 87.6404645,15.2720412 C87.8307779,15.3185869 88.1163352,15.3651325 88.5684823,15.3651325 C88.7826939,15.3651325 89.3299104,15.3417745 89.5678458,15.3185869 C89.7820574,15.2952288 90.2342044,15.1791204 90.5434855,14.9232045 C90.7578716,14.7371923 91.4240558,13.9696151 91.6501293,13.6905117 C91.6975768,13.6323722 91.7333369,13.6207784 91.7809589,13.643966 L91.9714467,13.7602449 C92.0070324,13.783603 92.0188942,13.8183844 91.994996,13.8765238 L91.4240558,15.6208779 C91.3882957,15.7255631 91.3049136,15.7952963 91.1622222,15.7952963 C91.1027383,15.7952963 90.8409047,15.7837025 90.1033748,15.7721087 C89.3538086,15.7721087 88.1281971,15.7605149 86.141332,15.7605149 C85.7010469,15.7605149 85.3799039,15.7721087 85.1299321,15.7721087 C84.8921712,15.7837025 84.7255815,15.7952963 84.6183013,15.7952963 C84.5469556,15.7952963 84.5230574,15.7721087 84.5230574,15.7023755 L84.5230574,15.423272 C84.5230574,15.3535388 84.5469556,15.3301807 84.6421995,15.3301807 L85.0467245,15.3301807 C85.593941,15.3301807 85.6417374,15.2604474 85.6417374,14.8301132 L85.6417374,10.9228349 C85.6417374,9.96924558 85.6178392,8.52718251 85.593941,8.36435794 C85.5464935,8.05047308 85.4275258,7.95738176 85.0704483,7.95738176 L84.6183013,7.95738176 C84.5708538,7.95738176 84.5469556,7.93402368 84.5469556,7.87605472 L84.5469556,7.57359316 C84.5469556,7.5154537 84.5589919,7.49226612 84.6183013,7.49226612 C84.8801349,7.49226612 85.3083837,7.53881178 86.2840234,7.5270475 L86.6172028,7.5270475 C87.1406955,7.5270475 89.8773013,7.50385991 90.4007941,7.50385991 C90.5912819,7.50385991 90.8173554,7.49226612 90.8766648,7.49226612 C90.9361487,7.49226612 90.9600469,7.5154537 90.9719088,7.56199937 C91.0195307,7.71323015 91.4716777,9.29475971 91.5192997,9.41103862 C91.5430235,9.48077186 91.5309871,9.51572373 91.4835396,9.53891132 L91.269328,9.63200264 C91.2335679,9.64359643 91.1979823,9.63200264 91.1622222,9.57386319 C91.1147747,9.50395945 90.1391349,8.43426168 89.8534031,8.27126661 C89.6037803,8.13180012 89.2824629,7.98056934 88.9492835,7.96897555 L87.1406955,7.92260038 L87.1169717,11.2832654 C87.4740493,11.2832654 88.3305469,11.2600779 88.4734128,11.225126 C88.7350719,11.1785803 88.8777634,11.0856595 89.0206293,10.806556 C89.091975,10.6553252 89.2111171,10.364628 89.2111171,10.1552577 C89.2111171,10.0855245 89.2585647,10.0621664 89.3061866,10.0621664 L89.6156422,10.0855245 C89.6630897,10.0855245 89.6986753,10.1087121 89.6869879,10.1786158 C89.6630897,10.364628 89.6630897,11.1320347 89.6630897,11.4344962 C89.6630897,11.8996119 89.7107117,12.4578188 89.7346099,12.7137347 C89.7346099,12.7717037 89.7107117,12.783468 89.6393659,12.7950618 L89.3777068,12.8416074 C89.3299104,12.8532012 89.3061866,12.8300136 89.2824629,12.7602804 C89.2348409,12.5740977 89.1516333,12.3181818 89.091975,12.1787153 C88.9850436,11.9461575 88.7589701,11.783333 88.4971365,11.7601454 C88.0688877,11.7135997 87.4975986,11.6902416 87.1169717,11.6902416 L87.1288336,12.3880856 Z" id="Fill-22" fill="#FEFEFE"></path>
                <path d="M36.3280411,22.4927739 C36.3280411,22.0973915 36.2329716,21.9113794 35.9235161,21.9113794 L35.3761252,21.9113794 C35.3047794,21.9113794 35.2810557,21.8880213 35.2810557,21.8066943 L35.2810557,21.5391846 C35.2810557,21.4694513 35.3047794,21.4460932 35.4000234,21.4460932 C35.518991,21.4460932 36.0901058,21.4810451 37.2323352,21.4810451 C38.2316987,21.4810451 38.8028134,21.4460932 38.9455048,21.4460932 C39.017025,21.4460932 39.0407488,21.4694513 39.0407488,21.5275908 L39.0407488,21.8182881 C39.0407488,21.8880213 39.017025,21.9113794 38.9455048,21.9113794 L38.4459103,21.9113794 C38.0890072,21.9113794 37.8747956,22.1205791 37.8629337,22.3649012 C37.8508974,22.5043677 37.8271736,23.2020412 37.8271736,23.876527 L37.8271736,25.3185901 C37.8271736,25.8999847 37.8390355,26.7257013 37.8629337,27.0978961 C37.8985194,27.632745 37.9937633,28.1677644 38.2793206,28.5399592 C38.6838457,29.0748081 39.3263061,29.2608202 39.8974208,29.2608202 C40.4448118,29.2608202 41.110996,29.0516205 41.4917972,28.7027838 C41.9439442,28.2608557 42.1818796,27.5863698 42.1818796,26.7374656 L42.1818796,24.6441042 C42.1818796,23.713873 42.0866357,22.6903799 42.0510501,22.4230407 C42.01529,22.1205791 41.8249766,21.9113794 41.563143,21.9113794 L41.1348942,21.9113794 C41.063374,21.9113794 41.0396502,21.8764275 41.0396502,21.8298818 L41.0396502,21.5391846 C41.0396502,21.4694513 41.063374,21.4460932 41.1348942,21.4460932 C41.2538619,21.4460932 41.8010784,21.4810451 42.5864047,21.4810451 C43.3239346,21.4810451 43.7047359,21.4460932 43.7999798,21.4460932 C43.9070856,21.4460932 43.9189475,21.4810451 43.9189475,21.5391846 L43.9189475,21.8066943 C43.9189475,21.8764275 43.9070856,21.9113794 43.8476018,21.9113794 L43.4191785,21.9113794 C42.9909297,21.9113794 42.9433078,22.236858 42.919584,22.3649012 C42.8956858,22.5043677 42.8956858,24.1324429 42.8956858,24.2836737 C42.8956858,24.4464983 42.871962,26.4699559 42.8243401,26.9350715 C42.7529943,27.8886609 42.467437,28.6096924 41.8249766,29.1677289 C41.3252076,29.6096569 40.5637795,29.8889309 39.6594854,29.8889309 C39.0883707,29.8889309 38.3982883,29.7958396 37.9461413,29.6096569 C37.2560589,29.3305535 36.7801881,28.7957046 36.5422528,28.0514855 C36.3756631,27.5398242 36.3280411,26.7724175 36.3280411,25.2488569 L36.3280411,22.4927739 Z" id="Fill-24" fill="#FEFEFE"></path>
                <path d="M47.0236903,24.4581603 C47.0236903,26.4350722 47.1187598,28.0631475 47.142658,28.423578 C47.1663818,29.005143 47.3092477,29.2842465 47.7374965,29.2842465 L48.046952,29.2842465 C48.142196,29.2842465 48.142196,29.3306217 48.142196,29.3887611 L48.142196,29.6562708 C48.142196,29.7260041 48.142196,29.7493621 48.046952,29.7493621 C47.9279843,29.7493621 47.2140037,29.7144103 46.7620312,29.7144103 C46.4525756,29.7144103 45.6435255,29.7493621 45.5245578,29.7493621 C45.4769359,29.7493621 45.4532121,29.7260041 45.4532121,29.644677 L45.4532121,29.3539797 C45.4532121,29.3306217 45.4769359,29.2842465 45.5245578,29.2842465 L45.9290829,29.2842465 C46.2385384,29.2842465 46.4049536,29.0283306 46.4644375,28.3190634 C46.4762994,28.1096931 46.5476451,26.4814474 46.5476451,24.6208144 L46.5476451,23.1439699 C46.5476451,22.4462965 46.1432945,21.9112771 45.6198018,21.9112771 L45.2390005,21.9112771 C45.1913785,21.8996833 45.1676547,21.8763252 45.1676547,21.82995 L45.1676547,21.5158947 C45.1676547,21.4695195 45.1913785,21.4461614 45.2390005,21.4461614 C45.2984843,21.4461614 45.3937283,21.4577552 45.6077654,21.4695195 C45.8219771,21.4811133 46.1432945,21.4811133 46.6667872,21.4811133 C46.8689625,21.4811133 47.0474141,21.4695195 47.19028,21.4577552 C47.3448333,21.4577552 47.4521136,21.4461614 47.5234593,21.4461614 C47.6661507,21.4461614 47.7374965,21.4811133 47.8088422,21.5508466 C47.9279843,21.6671255 50.2598907,24.5278935 50.4980005,24.8533722 C50.6644157,25.0395548 52.5204513,27.2957408 52.7109392,27.5281281 L52.7583867,27.5281281 L52.7583867,26.3187933 C52.7583867,25.2953002 52.7583867,24.7139057 52.7346629,24.1325111 C52.7109392,23.6905831 52.6633172,22.5508111 52.6038333,22.3532051 C52.5204513,22.0742722 52.2587921,21.9112771 51.9732348,21.9112771 L51.5924335,21.9112771 C51.5210878,21.9112771 51.5210878,21.8647314 51.5210878,21.806592 L51.5210878,21.5392528 C51.5210878,21.4695195 51.5210878,21.4461614 51.6163317,21.4461614 C51.7590232,21.4461614 52.1398245,21.4811133 52.9488745,21.4811133 C53.6628551,21.4811133 53.9482381,21.4461614 54.0911039,21.4461614 C54.1863479,21.4461614 54.2100716,21.4925366 54.2100716,21.527659 L54.2100716,21.7949982 C54.2100716,21.8647314 54.1863479,21.9112771 54.1387259,21.9112771 L53.8055466,21.9112771 C53.5676112,21.9112771 53.4486435,22.0972892 53.4128834,22.527794 C53.3533996,23.3183883 53.2344319,25.2721126 53.2344319,26.4582598 L53.2344319,29.5283981 C53.2344319,29.6910522 53.2344319,29.8538768 53.0917404,29.8538768 C52.9251508,29.8538768 52.7822849,29.7609559 52.687041,29.6680351 C52.5919715,29.5515857 51.949511,28.8307247 51.2118067,27.9700561 C50.3788584,26.9699211 49.4508406,25.8768653 49.3081491,25.6906826 C49.1415595,25.527858 47.2379019,23.2021094 47.095036,23.0394553 L47.0236903,23.0394553 L47.0236903,24.4581603 Z" id="Fill-26" fill="#FEFEFE"></path>
                <path d="M58.6829429,25.9466667 C58.6829429,26.0629456 58.7068411,28.737531 58.7068411,28.8654037 C58.7068411,29.2375985 58.8971545,29.2841442 59.1827119,29.2841442 L59.6823064,29.2841442 C59.7299284,29.2841442 59.7775504,29.3073318 59.7775504,29.3656417 L59.7775504,29.656339 C59.7775504,29.7260723 59.7299284,29.7494303 59.6585827,29.7494303 C59.5157168,29.7494303 59.039846,29.7144785 57.9215148,29.7144785 C56.7316634,29.7144785 56.2081707,29.7494303 56.089203,29.7494303 C56.0178573,29.7494303 55.9939591,29.7260723 55.9939591,29.6679328 L55.9939591,29.3538774 C55.9939591,29.3073318 56.0178573,29.2841442 56.089203,29.2841442 L56.5650738,29.2841442 C56.8031836,29.2841442 57.0648427,29.2607861 57.1124647,28.9469013 C57.1361885,28.7842472 57.1600867,26.2721454 57.1600867,25.6443757 L57.1600867,24.8302528 C57.1600867,24.5509788 57.1361885,22.457788 57.1243266,22.3067277 C57.0885665,22.0276242 56.9695988,21.9113453 56.6365939,21.9113453 L56.0178573,21.9113453 C55.9463371,21.9113453 55.9226133,21.8879872 55.9226133,21.8298477 L55.9226133,21.5275567 C55.9226133,21.4694172 55.9463371,21.4462296 55.9939591,21.4462296 C56.136825,21.4462296 56.7555616,21.4811815 57.9215148,21.4811815 C59.0637442,21.4811815 59.444371,21.4462296 59.6109607,21.4462296 C59.6823064,21.4462296 59.7062046,21.4926048 59.7062046,21.5509148 L59.7062046,21.818254 C59.7062046,21.8879872 59.6585827,21.9113453 59.6109607,21.9113453 L59.1589881,21.9113453 C58.8971545,21.9113453 58.7068411,22.0044366 58.7068411,22.2254006 C58.7068411,22.341509 58.6829429,24.899986 58.6829429,25.039623 L58.6829429,25.9466667 Z" id="Fill-28" fill="#FEFEFE"></path>
                <path d="M67.0349111,21.5392187 C67.0349111,21.4694854 67.0586349,21.4461273 67.130155,21.4461273 C67.2252245,21.4461273 67.7726155,21.4810792 68.5340436,21.4810792 C69.5334071,21.4810792 69.8428627,21.4461273 69.9381066,21.4461273 C70.0094523,21.4461273 70.0330016,21.4694854 70.0330016,21.5276249 L70.0330016,21.8183222 C70.0330016,21.8764616 70.0094523,21.9114135 69.9381066,21.9114135 L69.6523748,21.9114135 C69.3668174,21.9114135 69.0575363,22.0275219 68.7838409,22.4462624 C68.3911777,23.0626088 67.6773715,24.8766962 67.3441922,25.6442734 C67.1062568,26.1559347 65.6786445,29.5515516 65.5595024,29.7958737 C65.5120548,29.888965 65.4168109,29.946934 65.321567,29.946934 C65.1787011,29.946934 65.1193917,29.8190613 65.0599078,29.6794243 C64.6552084,28.6910536 63.6558448,26.028062 63.2513198,24.9464294 C62.9418642,24.109119 62.4183715,22.6206807 62.2875419,22.2834378 C62.1804361,22.0275219 62.0377447,21.9114135 61.7760855,21.9114135 L61.4903537,21.9114135 C61.4427318,21.9114135 61.419008,21.8764616 61.419008,21.8065579 L61.419008,21.5392187 C61.419008,21.4694854 61.4427318,21.4461273 61.4903537,21.4461273 C61.6093214,21.4461273 62.0140209,21.4810792 63.2513198,21.4810792 C64.3698254,21.4810792 64.9170419,21.4461273 65.0121114,21.4461273 C65.1073554,21.4461273 65.1312536,21.4810792 65.1312536,21.5392187 L65.1312536,21.7949641 C65.1312536,21.8764616 65.1073554,21.9114135 65.0360096,21.9114135 L64.4648949,21.9114135 C64.1556138,21.9114135 63.965126,22.0275219 63.965126,22.2021108 C63.965126,22.2952021 63.965126,22.4346686 64.000886,22.5974931 C64.0842681,23.0160631 64.5364151,24.3883929 64.774176,25.0628788 C64.9407657,25.5048069 65.5834006,27.3420818 65.773714,27.970022 L65.7974378,27.970022 L65.7974378,27.9468344 C66.0829951,27.2957067 66.8444232,25.3649994 66.9635654,25.0163331 C67.1538788,24.4695495 67.8915832,22.7137721 67.8915832,22.2368921 C67.8915832,22.0972551 67.7726155,21.9114135 67.4392617,21.9114135 L67.1182931,21.9114135 C67.0704967,21.9114135 67.0349111,21.8646973 67.0349111,21.8065579 L67.0349111,21.5392187 Z" id="Fill-30" fill="#FEFEFE"></path>
                <path d="M73.8992075,26.3419468 C73.9110693,26.9700575 73.9349675,28.109659 73.9349675,28.3190293 C73.9349675,28.9237819 74.1491792,29.1561692 74.4110128,29.2260729 C74.6011517,29.2724481 74.8867091,29.3189938 75.3388561,29.3189938 C75.5528933,29.3189938 76.1002842,29.2958062 76.3382196,29.2724481 C76.5524312,29.2492605 77.0045782,29.1329816 77.3138594,28.8770657 C77.5282454,28.6910536 78.1944296,27.9234764 78.4205031,27.6445434 C78.4679506,27.5864039 78.5037107,27.5746396 78.5513327,27.5978272 L78.7418206,27.7142766 C78.7774062,27.7376347 78.7892681,27.7724161 78.7653699,27.830385 L78.1944296,29.5749097 C78.1586695,29.6794243 78.0752875,29.749328 77.932596,29.749328 C77.8731122,29.749328 77.6112786,29.7377342 76.8737487,29.7261405 C76.1241824,29.7261405 74.898571,29.7143762 72.9117058,29.7143762 C72.4714207,29.7143762 72.1502777,29.7261405 71.900306,29.7261405 C71.662545,29.7377342 71.4959554,29.749328 71.3886751,29.749328 C71.3173294,29.749328 71.2934312,29.7261405 71.2934312,29.6562367 L71.2934312,29.3773037 C71.2934312,29.3074 71.3173294,29.2842124 71.4125733,29.2842124 L71.8170984,29.2842124 C72.3643149,29.2842124 72.4121113,29.2144792 72.4121113,28.7841449 L72.4121113,24.8766962 C72.4121113,23.9231068 72.3882131,22.4810437 72.3643149,22.3182192 C72.3168674,22.0045048 72.1978997,21.9114135 71.8408221,21.9114135 L71.3886751,21.9114135 C71.3412276,21.9114135 71.3173294,21.8880554 71.3173294,21.8299159 L71.3173294,21.5276249 C71.3173294,21.4694854 71.3293657,21.4461273 71.3886751,21.4461273 C71.6505087,21.4461273 72.0787575,21.492673 73.0543973,21.4810792 L73.3875766,21.4810792 C73.9110693,21.4810792 76.6476752,21.4578916 77.1711679,21.4578916 C77.3616558,21.4578916 77.5877293,21.4461273 77.6470387,21.4461273 C77.7065225,21.4461273 77.7304207,21.4694854 77.7422826,21.5158606 C77.7899046,21.6670914 78.2420516,23.2486209 78.2896735,23.3648998 C78.3133973,23.4346331 78.301361,23.469585 78.2539135,23.492943 L78.0397018,23.5858639 C78.0039418,23.5974577 77.9683561,23.5858639 77.932596,23.5277244 C77.8851485,23.4579912 76.9095088,22.3881229 76.623777,22.2252983 C76.3741541,22.0858318 76.0528367,21.9346011 75.7196574,21.9230073 L73.9110693,21.8764616 L73.8873456,25.2372972 C74.2444231,25.2372972 75.1009207,25.2139391 75.2437866,25.1791577 C75.5054458,25.1326121 75.6481372,25.0395207 75.7910031,24.7605877 C75.8623488,24.609357 75.981491,24.3186597 75.981491,24.109119 C75.981491,24.0393857 76.0289385,24.0161981 76.0765605,24.0161981 L76.386016,24.0393857 C76.4334635,24.0393857 76.4690492,24.0627438 76.4573617,24.132477 C76.4334635,24.3186597 76.4334635,25.0860664 76.4334635,25.3883575 C76.4334635,25.8536436 76.4810855,26.4116801 76.5049837,26.667596 C76.5049837,26.7257354 76.4810855,26.7373292 76.4097398,26.7490935 L76.1480806,26.7954687 C76.1002842,26.8072329 76.0765605,26.7838749 76.0528367,26.7141416 C76.0052147,26.5281295 75.9220071,26.2722136 75.8623488,26.1325766 C75.7554175,25.9000188 75.529344,25.7371942 75.2675104,25.7140066 C74.8392616,25.6674609 74.2679724,25.6442734 73.8873456,25.6442734 L73.8992075,26.3419468 Z" id="Fill-32" fill="#FEFEFE"></path>
                <path d="M82.7744939,25.6210005 C82.9409091,25.6443586 83.083775,25.6673757 83.2266409,25.6673757 C85.0825021,25.6673757 85.4633033,24.2022955 85.4633033,23.6672762 C85.4633033,23.1322568 85.2372298,22.6323598 84.9398106,22.3648501 C84.5115618,21.9928258 83.9641709,21.8647826 83.3693324,21.8647826 C83.1788445,21.8647826 83.0361531,21.8763764 82.9409091,21.9346863 C82.8458397,21.9928258 82.7982177,22.1322923 82.7982177,22.2717587 L82.7744939,25.6210005 Z M82.7505957,26.6676812 C82.7505957,27.3653547 82.7744939,28.6677807 82.7982177,28.8423696 C82.8339778,29.0749274 82.9171854,29.2841272 83.1074988,29.2841272 L83.7023373,29.2841272 C83.7738574,29.2841272 83.7975812,29.3189085 83.7975812,29.3656247 L83.7975812,29.6447282 C83.7975812,29.7260552 83.7619956,29.7494133 83.6667516,29.7494133 C83.5121983,29.7494133 83.2740885,29.7144614 82.0367896,29.7144614 C80.8708364,29.7144614 80.5851046,29.7494133 80.4663113,29.7494133 C80.3947912,29.7494133 80.3710674,29.7144614 80.3710674,29.6447282 L80.3710674,29.3772185 C80.3710674,29.3189085 80.3947912,29.2841272 80.4424131,29.2841272 L80.8469382,29.2841272 C81.1087718,29.2841272 81.2990852,29.2143939 81.2990852,28.9003386 C81.3229834,27.7375495 81.3229834,26.6443231 81.3229834,25.5512673 L81.3229834,22.4927228 C81.3229834,22.0973404 81.1563937,21.9113282 80.9421821,21.9113282 L80.4781732,21.9113282 C80.4186894,21.9113282 80.3947912,21.8879702 80.3947912,21.841595 L80.3947912,21.5275396 C80.3947912,21.4694002 80.4186894,21.4462126 80.4781732,21.4462126 C80.5613808,21.4462126 80.9421821,21.4811645 82.1081353,21.4811645 C82.7744939,21.4811645 83.8689269,21.4462126 84.2260045,21.4462126 C85.177746,21.4462126 85.9154504,21.7600975 86.3913211,22.1788379 C86.8195699,22.5508622 87.033956,23.0393359 87.033956,23.481264 C87.033956,24.9465147 86.129662,25.5512673 84.8208429,25.760467 L84.8208429,25.8071832 C85.1540222,25.9232916 85.3682339,26.1326618 85.5346491,26.3420321 C85.6776894,26.5280442 86.4152193,27.6211001 86.5104633,27.760737 C86.581809,27.877016 87.3432371,28.9236966 87.5216887,29.0863507 C87.7477622,29.2841272 88.0809415,29.3073147 88.3664988,29.3073147 C88.4378446,29.3073147 88.4617428,29.3422666 88.4617428,29.3888123 L88.4617428,29.6329639 C88.4617428,29.7144614 88.4378446,29.7494133 88.3664988,29.7494133 C88.2712549,29.7494133 87.9619738,29.7144614 87.2005457,29.7144614 C86.8673663,29.7144614 86.4152193,29.7378195 86.1533857,29.7494133 C86.0106943,29.6447282 85.7846208,29.3306728 85.629893,29.0863507 C85.4158558,28.7608721 84.9516725,27.9235616 84.8445667,27.7375495 C84.7257734,27.5281792 84.3924197,26.9933303 84.2022807,26.7374144 C83.904687,26.3302678 83.6309915,26.0163829 83.131397,26.0163829 C83.083775,26.0163829 82.8814253,26.0281472 82.7505957,26.0395705 L82.7505957,26.6676812 Z" id="Fill-34" fill="#FEFEFE"></path>
                <path d="M90.4598767,27.1211689 C90.5074987,27.1211689 90.5312224,27.144527 90.5312224,27.2142603 C90.5551206,27.5864551 90.6503646,28.0282126 90.9833694,28.5398739 C91.340447,29.0980809 91.9591836,29.3771844 92.5540221,29.3771844 C93.1964825,29.3771844 94.1007765,28.981802 94.1007765,28.0166188 C94.1007765,26.9467506 93.6010076,26.5979139 92.3398105,26.1326277 C91.9591836,25.9931612 91.1738573,25.6675121 90.6027426,25.1558508 C90.1982175,24.783656 90.0077297,24.2022614 90.0077297,23.4929942 C90.0077297,22.8415254 90.2695633,22.306847 90.840678,21.8647485 C91.3165488,21.4695366 91.8400415,21.3065415 92.5301239,21.3065415 C93.3154502,21.3065415 93.7914954,21.4925537 94.0292564,21.585645 C94.1483985,21.6323611 94.2197442,21.6090031 94.2792281,21.5508636 L94.4337814,21.3996328 C94.4815778,21.3530872 94.5290254,21.3298996 94.6003711,21.3298996 C94.6718912,21.3298996 94.695615,21.3996328 94.695615,21.5159117 C94.695615,21.7020944 94.8859284,23.3301696 94.8859284,23.446278 C94.8859284,23.4929942 94.8622047,23.5160113 94.8145827,23.5277756 L94.6242693,23.585915 C94.5766473,23.5975088 94.5290254,23.585915 94.5051271,23.5160113 C94.3863339,23.1905326 94.195846,22.725417 93.7675972,22.2834889 C93.4581417,21.9578398 93.0775148,21.7950152 92.5301239,21.7950152 C91.5783823,21.7950152 91.1975811,22.5392343 91.1975811,22.9695686 C91.1975811,23.364951 91.245203,23.7139582 91.5307604,24.0162493 C91.8400415,24.3187108 92.5062257,24.5976438 92.9822709,24.7372808 C93.6723533,24.9464806 94.243468,25.1790384 94.695615,25.6443245 C95.0764163,26.0395364 95.2904535,26.5280101 95.2904535,27.3071811 C95.2904535,28.7258861 94.3385375,29.8888457 92.7680593,29.8888457 C91.792594,29.8888457 91.2213048,29.6794754 90.7456085,29.3306387 C90.6027426,29.2375474 90.5312224,29.1911722 90.4598767,29.1911722 C90.388531,29.1911722 90.340909,29.2842635 90.2695633,29.400372 C90.1982175,29.5168214 90.1505956,29.5400089 90.0555261,29.5400089 C89.9602822,29.5400089 89.9126602,29.4701052 89.9126602,29.3539968 C89.936384,29.2143598 90.1029736,27.3305392 90.1268718,27.1909022 C90.1387337,27.1211689 90.1505956,27.0978109 90.1982175,27.0978109 L90.4598767,27.1211689 Z" id="Fill-36" fill="#FEFEFE"></path>
                <path d="M99.9063476,25.9466667 C99.9063476,26.0629456 99.9300714,28.737531 99.9300714,28.8654037 C99.9300714,29.2375985 100.120559,29.2841442 100.405942,29.2841442 L100.905711,29.2841442 C100.953333,29.2841442 101.000781,29.3073318 101.000781,29.3656417 L101.000781,29.656339 C101.000781,29.7260723 100.953333,29.7494303 100.881987,29.7494303 C100.739122,29.7494303 100.263251,29.7144785 99.1449195,29.7144785 C97.9548937,29.7144785 97.431401,29.7494303 97.3126077,29.7494303 C97.241262,29.7494303 97.2173638,29.7260723 97.2173638,29.6679328 L97.2173638,29.3538774 C97.2173638,29.3073318 97.241262,29.2841442 97.3126077,29.2841442 L97.7884785,29.2841442 C98.0264139,29.2841442 98.2882475,29.2607861 98.335695,28.9469013 C98.3595932,28.7842472 98.3834914,26.2721454 98.3834914,25.6443757 L98.3834914,24.8302528 C98.3834914,24.5509788 98.3595932,22.457788 98.3475569,22.3067277 C98.3119712,22.0276242 98.1930035,21.9113453 97.8599987,21.9113453 L97.241262,21.9113453 C97.1697418,21.9113453 97.1460181,21.8879872 97.1460181,21.8298477 L97.1460181,21.5275567 C97.1460181,21.4694172 97.1697418,21.4462296 97.2173638,21.4462296 C97.3600552,21.4462296 97.9787919,21.4811815 99.1449195,21.4811815 C100.287149,21.4811815 100.667776,21.4462296 100.834365,21.4462296 C100.905711,21.4462296 100.929435,21.4926048 100.929435,21.5509148 L100.929435,21.818254 C100.929435,21.8879872 100.881987,21.9113453 100.834365,21.9113453 L100.382218,21.9113453 C100.120559,21.9113453 99.9300714,22.0044366 99.9300714,22.2254006 C99.9300714,22.341509 99.9063476,24.899986 99.9063476,25.039623 L99.9063476,25.9466667 Z" id="Fill-38" fill="#FEFEFE"></path>
                <path d="M106.02127,21.9694677 L105.68809,21.9694677 C105.307289,21.9694677 104.450617,21.9694677 103.951022,22.1322923 C103.570221,22.2951168 103.118074,23.0625235 102.892175,23.4579059 C102.856241,23.5160454 102.820655,23.5627615 102.761171,23.5394035 L102.523236,23.4579059 C102.475614,23.4347183 102.463577,23.399937 102.475614,23.3417975 L103.046728,21.2018905 C103.070452,21.0392364 103.141972,20.9926908 103.189594,20.9926908 C103.26094,20.9926908 103.308388,21.0392364 103.379733,21.1089697 C103.617843,21.3415275 103.855779,21.3996669 104.188958,21.4114312 C104.831418,21.4344483 105.331187,21.4811645 106.49714,21.4811645 L107.139601,21.4811645 C108.44842,21.4811645 108.948014,21.4344483 109.495405,21.4114312 C109.721479,21.3996669 110.173626,21.2368424 110.352077,21.1089697 C110.447321,21.0392364 110.494943,20.9926908 110.566289,20.9926908 C110.637635,20.9926908 110.661533,21.0392364 110.685082,21.1787029 C110.708981,21.3880731 110.946916,22.8301362 111.04216,23.3881727 C111.054196,23.4579059 111.030298,23.481264 110.994538,23.4930283 L110.756602,23.5743553 C110.708981,23.5857786 110.685082,23.5509972 110.649497,23.481264 C110.482907,23.1556149 110.042796,22.4113957 109.709617,22.1788379 C109.376438,21.9928258 108.305728,21.9694677 107.877305,21.9694677 L107.544126,21.9694677 L107.544126,28.1677132 C107.544126,29.0515693 107.663094,29.2841272 107.948651,29.2841272 L108.638733,29.2841272 C108.686355,29.2841272 108.710079,29.3306728 108.710079,29.3888123 L108.710079,29.6329639 C108.710079,29.7026971 108.686355,29.7494133 108.591111,29.7494133 C108.472318,29.7494133 108.091342,29.7144614 106.806422,29.7144614 C105.592846,29.7144614 105.093252,29.7494133 104.926662,29.7494133 C104.855142,29.7494133 104.831418,29.7260552 104.831418,29.6447282 L104.831418,29.3772185 C104.831418,29.3073147 104.867178,29.2841272 104.914626,29.2841272 L105.592846,29.2841272 C105.830782,29.2841272 105.973648,29.1446607 105.98551,28.9702423 C106.02127,28.6677807 106.02127,25.1093392 106.02127,24.8767814 L106.02127,21.9694677 Z" id="Fill-40" fill="#FEFEFE"></path>
                <path d="M117.383173,27.5514009 C117.383173,27.993329 117.406897,28.7609062 117.418758,28.8887789 C117.454519,29.2608032 117.644832,29.2841612 117.882767,29.2841612 L118.27543,29.2841612 C118.334914,29.2841612 118.358813,29.3189426 118.358813,29.3656588 L118.358813,29.632998 C118.358813,29.7144955 118.334914,29.7494474 118.27543,29.7494474 C118.144601,29.7494474 117.66873,29.7144955 116.597846,29.7144955 C115.431719,29.7144955 115.051092,29.7494474 114.944161,29.7494474 C114.884502,29.7494474 114.860779,29.7027312 114.860779,29.6445918 L114.860779,29.3772526 C114.860779,29.3307069 114.884502,29.2841612 114.944161,29.2841612 L115.431719,29.2841612 C115.741174,29.2841612 115.836418,29.1677118 115.84828,28.993464 C115.860317,28.8306394 115.883866,27.9235957 115.883866,26.8303694 L115.883866,26.2721624 C115.693552,25.9233257 113.766171,22.5742544 113.432817,22.1671077 C113.290126,22.0044537 113.028467,21.9113623 112.837979,21.9113623 L112.623942,21.9113623 C112.552596,21.9113623 112.528698,21.8880043 112.528698,21.8298648 L112.528698,21.5159799 C112.528698,21.4694343 112.552596,21.4460762 112.623942,21.4460762 C112.719186,21.4460762 113.290126,21.4810281 114.19442,21.4810281 C115.407995,21.4810281 115.836418,21.4460762 115.955212,21.4460762 C116.026732,21.4460762 116.050456,21.4694343 116.050456,21.5275737 L116.050456,21.7949129 C116.050456,21.8646462 116.026732,21.9113623 115.955212,21.9113623 L115.64593,21.9113623 C115.384271,21.9113623 115.289027,22.0044537 115.312926,22.2484348 C115.336649,22.457805 116.764436,25.0396401 117.085579,25.6907679 C117.490104,25.0396401 119.024997,22.6206296 119.048895,22.3299323 C119.072619,22.1205621 119.001099,21.9113623 118.644195,21.9113623 L118.334914,21.9113623 C118.263569,21.9113623 118.23967,21.8764105 118.23967,21.818271 L118.23967,21.5275737 C118.23967,21.4694343 118.263569,21.4460762 118.311016,21.4460762 C118.430158,21.4460762 118.929753,21.4810281 119.762701,21.4810281 C120.524129,21.4810281 120.785963,21.4460762 120.904756,21.4460762 C120.976276,21.4460762 121,21.4694343 121,21.5275737 L121,21.7949129 C121,21.8646462 120.976276,21.9113623 120.904756,21.9113623 L120.643097,21.9113623 C120.476507,21.9113623 120.191124,21.9810956 120.000636,22.1787015 C119.810323,22.3880718 117.83532,25.3651187 117.383173,26.1326959 L117.383173,27.5514009 Z" id="Fill-42" fill="#FEFEFE"></path>
            </g>
        </g>
    </g>
</svg>