<?xml version="1.0" encoding="utf-8"?>
<!-- Generator: Adobe Illustrator 26.2.1, SVG Export Plug-In . SVG Version: 6.00 Build 0)  -->
<svg version="1.1" id="Layer_1" xmlns="http://www.w3.org/2000/svg" xmlns:xlink="http://www.w3.org/1999/xlink" x="0px" y="0px"
	 viewBox="0 0 297 290" style="enable-background:new 0 0 297 290;" xml:space="preserve">
<style type="text/css">
	.st0{stroke:#000000;stroke-width:3;stroke-miterlimit:10;}
	.st1{fill:none;stroke:#000000;stroke-width:4;stroke-miterlimit:10;}
</style>
<g>
	<g>
		<g>
			<path class="st0" d="M32.09,89.28c-1.8,0-3.17-0.51-4.14-1.54c-0.96-1.03-1.44-2.44-1.44-4.23V25.69c0-1.86,0.51-3.29,1.54-4.28
				c1.03-0.99,2.44-1.49,4.23-1.49c1.6,0,2.87,0.31,3.8,0.91c0.93,0.61,1.78,1.65,2.55,3.13l23.76,43.97h-3.08l23.76-43.97
				c0.77-1.47,1.6-2.52,2.5-3.13s2.15-0.91,3.75-0.91c1.79,0,3.18,0.5,4.14,1.49c0.96,1,1.44,2.42,1.44,4.28v57.82
				c0,1.8-0.47,3.21-1.4,4.23c-0.93,1.02-2.33,1.54-4.19,1.54c-1.8,0-3.17-0.51-4.14-1.54c-0.96-1.03-1.44-2.44-1.44-4.23V38.97
				h2.12l-20.2,36.85c-0.64,1.09-1.31,1.89-2.02,2.41C62.92,78.74,61.96,79,60.74,79s-2.21-0.27-2.98-0.82
				c-0.77-0.54-1.44-1.33-2.02-2.36l-20.4-36.94h2.31v44.64c0,1.8-0.47,3.21-1.4,4.23C35.34,88.77,33.95,89.28,32.09,89.28z"/>
		</g>
	</g>
</g>
<g>
	<g>
		<path class="st0" d="M60.94,171.08c-7.55,0-14.01-1.53-19.4-4.58s-9.52-7.37-12.4-12.97c-2.88-5.59-4.32-12.2-4.32-19.81
			c0-5.69,0.82-10.82,2.47-15.39c1.65-4.56,4.01-8.47,7.1-11.73c3.09-3.26,6.88-5.76,11.37-7.51s9.55-2.62,15.18-2.62
			c3.77,0,7.48,0.48,11.12,1.44s6.83,2.33,9.57,4.12c1.44,0.89,2.4,1.97,2.88,3.24c0.48,1.27,0.58,2.51,0.31,3.71
			c-0.27,1.2-0.84,2.21-1.7,3.04c-0.86,0.82-1.92,1.29-3.19,1.39c-1.27,0.1-2.66-0.32-4.17-1.29c-2.13-1.37-4.43-2.37-6.9-2.98
			c-2.47-0.62-4.98-0.93-7.51-0.93c-4.87,0-8.99,1-12.35,2.98c-3.36,1.99-5.9,4.87-7.62,8.65c-1.72,3.77-2.57,8.41-2.57,13.89
			c0,5.42,0.86,10.05,2.57,13.89s4.25,6.76,7.62,8.75c3.36,1.99,7.48,2.98,12.35,2.98c2.61,0,5.18-0.33,7.72-0.98
			s4.94-1.66,7.2-3.04c1.51-0.89,2.86-1.29,4.06-1.18c1.2,0.1,2.21,0.53,3.04,1.29c0.82,0.76,1.37,1.7,1.65,2.83
			c0.27,1.13,0.21,2.3-0.21,3.5c-0.41,1.2-1.23,2.25-2.47,3.14c-2.75,1.99-6.02,3.52-9.83,4.58
			C68.71,170.55,64.85,171.08,60.94,171.08z"/>
	</g>
</g>
<g>
	<g>
		<g>
			<path class="st0" d="M134.74,88.57c-1.99,0-3.51-0.56-4.57-1.68s-1.59-2.71-1.59-4.76V52.88l2.6,7.41L108,27.67
				c-0.83-1.15-1.2-2.39-1.11-3.7c0.1-1.31,0.63-2.44,1.59-3.37s2.31-1.4,4.04-1.4c1.28,0,2.45,0.32,3.51,0.96
				c1.06,0.64,2.07,1.64,3.03,2.98l17.22,24.44h-2.69l17.32-24.44c1.03-1.41,2.02-2.42,2.98-3.03c0.96-0.61,2.15-0.91,3.56-0.91
				c1.67,0,2.96,0.43,3.9,1.3c0.93,0.87,1.41,1.94,1.44,3.22c0.03,1.28-0.43,2.63-1.39,4.04l-23,32.52l2.5-7.41v29.25
				C140.9,86.42,138.85,88.57,134.74,88.57z"/>
		</g>
	</g>
</g>
<g>
	<g>
		<g>
			<path class="st0" d="M114.54,172.92c-2.13,0-3.76-0.6-4.89-1.8s-1.7-2.86-1.7-4.99v-60.62c0-2.19,0.57-3.88,1.7-5.04
				c1.13-1.17,2.76-1.75,4.89-1.75c2.12,0,3.76,0.58,4.89,1.75s1.7,2.85,1.7,5.04v60.62c0,2.13-0.55,3.79-1.65,4.99
				S116.73,172.92,114.54,172.92z"/>
		</g>
	</g>
</g>
<g>
	<g>
		<g>
			<path class="st0" d="M169.79,170.92c-1.96,0-3.46-0.6-4.5-1.8s-1.56-2.86-1.56-4.99v-55.58h-18.46c-1.64,0-2.92-0.5-3.83-1.49
				c-0.92-0.99-1.37-2.35-1.37-4.06c0-1.78,0.46-3.14,1.37-4.07c0.91-0.93,2.19-1.39,3.83-1.39h49.05c1.64,0,2.92,0.46,3.83,1.39
				s1.37,2.28,1.37,4.07c0,1.72-0.46,3.07-1.37,4.06c-0.92,1-2.19,1.49-3.83,1.49h-18.46v55.58c0,2.13-0.51,3.79-1.51,4.99
				C173.32,170.32,171.81,170.92,169.79,170.92z"/>
		</g>
	</g>
</g>
<g>
	<g>
		<g>
			<path class="st0" d="M56.82,269.69c-4.34,0-8.84-0.56-13.49-1.69c-4.66-1.12-8.72-2.81-12.17-5.06
				c-1.61-1.04-2.69-2.25-3.25-3.62s-0.7-2.67-0.42-3.92c0.28-1.24,0.88-2.31,1.81-3.19c0.92-0.88,2.09-1.4,3.49-1.57
				c1.4-0.16,2.95,0.2,4.64,1.08c3.29,1.77,6.46,3.03,9.52,3.8c3.05,0.76,6.18,1.14,9.4,1.14c3.53,0,6.51-0.48,8.92-1.45
				c2.41-0.96,4.24-2.41,5.48-4.34c1.24-1.93,1.87-4.26,1.87-6.99c0-4.02-1.35-7.01-4.04-8.98s-6.61-2.95-11.75-2.95H49.1
				c-2.25,0-3.96-0.56-5.12-1.69c-1.17-1.12-1.75-2.69-1.75-4.7s0.58-3.57,1.75-4.7c1.16-1.12,2.87-1.69,5.12-1.69h6.27
				c3.05,0,5.66-0.5,7.83-1.51c2.17-1,3.86-2.43,5.06-4.28c1.21-1.85,1.81-4.1,1.81-6.75c0-3.69-1.23-6.51-3.67-8.43
				c-2.45-1.93-6.01-2.89-10.66-2.89c-2.97,0-5.76,0.34-8.37,1.02c-2.61,0.68-5.48,1.95-8.62,3.8c-1.45,0.88-2.83,1.25-4.16,1.08
				c-1.33-0.16-2.43-0.68-3.31-1.57c-0.88-0.88-1.49-1.95-1.81-3.19c-0.32-1.25-0.24-2.53,0.24-3.86s1.49-2.47,3.01-3.43
				c3.45-2.25,7.27-3.96,11.45-5.12c4.18-1.16,8.47-1.75,12.89-1.75c5.86,0,10.88,0.9,15.06,2.71c4.18,1.81,7.37,4.38,9.58,7.71
				s3.31,7.37,3.31,12.11c0,3.37-0.64,6.45-1.93,9.22s-3.09,5.12-5.42,7.05c-2.33,1.93-5.14,3.29-8.43,4.1v-1.45
				c5.78,0.96,10.28,3.35,13.49,7.17c3.21,3.82,4.82,8.58,4.82,14.28c0,4.98-1.25,9.32-3.74,13.01c-2.49,3.7-6.02,6.53-10.6,8.49
				C68.62,268.7,63.16,269.69,56.82,269.69z"/>
		</g>
	</g>
</g>
<g>
	<g>
		<g>
			<path class="st0" d="M239.51,172.15c-1.99,0-3.51-0.61-4.57-1.82c-1.06-1.21-1.59-2.93-1.59-5.14V133.6l2.6,8l-23.19-35.22
				c-0.83-1.25-1.2-2.58-1.11-4c0.1-1.42,0.62-2.63,1.59-3.64c0.96-1,2.31-1.51,4.04-1.51c1.28,0,2.45,0.35,3.51,1.04
				s2.07,1.77,3.03,3.22l17.22,26.39h-2.69l17.32-26.39c1.03-1.52,2.02-2.61,2.98-3.27c0.96-0.66,2.15-0.99,3.56-0.99
				c1.67,0,2.97,0.47,3.9,1.4c0.93,0.94,1.41,2.1,1.44,3.48c0.03,1.39-0.43,2.84-1.39,4.36l-22.99,35.12l2.5-8v31.59
				C245.67,169.83,243.61,172.15,239.51,172.15z"/>
		</g>
	</g>
</g>
<g>
	<g>
		<g>
			<path class="st0" d="M117.73,268.14c-2.49,0-4.4-0.7-5.72-2.11s-1.99-3.35-1.99-5.84v-70.97c0-2.57,0.66-4.54,1.99-5.9
				c1.33-1.37,3.23-2.05,5.72-2.05s4.4,0.68,5.72,2.05c1.33,1.37,1.99,3.33,1.99,5.9v70.97c0,2.49-0.64,4.44-1.93,5.84
				C122.23,267.44,120.3,268.14,117.73,268.14z"/>
		</g>
	</g>
</g>
<g>
	<g>
		<g>
			<path class="st0" d="M165.21,268.18c-2.49,0-4.4-0.7-5.72-2.11s-1.99-3.35-1.99-5.84v-70.97c0-2.57,0.66-4.54,1.99-5.9
				c1.33-1.37,3.23-2.05,5.72-2.05s4.4,0.68,5.72,2.05c1.33,1.37,1.99,3.33,1.99,5.9v70.97c0,2.49-0.64,4.44-1.93,5.84
				C169.71,267.48,167.78,268.18,165.21,268.18z"/>
		</g>
	</g>
</g>
<path class="st1" d="M276.07,285h-257c-6.6,0-12-5.64-12-12.54V16.54c0-6.89,5.4-12.54,12-12.54h257c6.6,0,12,5.64,12,12.54v255.93
	C288.07,279.36,282.67,285,276.07,285z"/>
</svg>
