<?xml version="1.0" encoding="utf-8"?>
<!-- Generator: Adobe Illustrator 26.0.2, SVG Export Plug-In . SVG Version: 6.00 Build 0)  -->
<svg version="1.1" id="Layer_1" xmlns="http://www.w3.org/2000/svg" xmlns:xlink="http://www.w3.org/1999/xlink" x="0px" y="0px"
	 viewBox="0 0 270 217" style="enable-background:new 0 0 270 217;" xml:space="preserve">
<style type="text/css">
	.st0{fill:#CB366A;}
	.st1{fill:#F2C84C;}
	.st2{fill:#55CAF2;}
</style>
<g>
	<path class="st0" d="M63.5,71.5h-55c-4.42,0-8-3.58-8-8v-55c0-4.42,3.58-8,8-8h55c4.42,0,8,3.58,8,8v55
		C71.5,67.92,67.92,71.5,63.5,71.5z"/>
	<path class="st1" d="M134.5,143.5H8.5c-4.42,0-8-3.58-8-8v-55c0-4.42,3.58-8,8-8h126c4.42,0,8,3.58,8,8v55
		C142.5,139.92,138.92,143.5,134.5,143.5z"/>
	<path class="st2" d="M259.5,215.5H8.5c-4.42,0-8-3.58-8-8v-55c0-4.42,3.58-8,8-8h251c4.42,0,8,3.58,8,8v55
		C267.5,211.92,263.92,215.5,259.5,215.5z"/>
</g>
</svg>
