<?xml version="1.0" encoding="UTF-8"?>
<svg xmlns="http://www.w3.org/2000/svg" version="1.1" viewBox="0 0 24 24">
  <defs>
    <style>
      .cls-1 {
        fill: #e82500;
      }
    </style>
  </defs>
  <!-- Generator: Adobe Illustrator 28.7.1, SVG Export Plug-In . SVG Version: 1.2.0 Build 142)  -->
  <g>
    <g id="Layer_1">
      <path class="cls-1" d="M12.2,13l-.9.9c-.2.2-.3.4-.3.7s0,.5.3.7.4.3.7.3.5,0,.7-.3l2.6-2.6c.2-.2.3-.4.3-.7s-.1-.5-.3-.7l-2.6-2.6c-.2-.2-.4-.3-.7-.3s-.5,0-.7.3-.3.4-.3.7,0,.5.3.7l.9.9h-3.2c-.3,0-.5,0-.7.3-.2.2-.3.4-.3.7s0,.5.3.7.4.3.7.3h3.2ZM12,22c-1.4,0-2.7-.3-3.9-.8s-2.3-1.2-3.2-2.1-1.6-2-2.1-3.2-.8-2.5-.8-3.9.3-2.7.8-3.9,1.2-2.3,2.1-3.2,2-1.6,3.2-2.1,2.5-.8,3.9-.8,2.7.3,3.9.8,2.3,1.2,3.2,2.1,1.6,2,2.1,3.2.8,2.5.8,3.9-.3,2.7-.8,3.9-1.2,2.3-2.1,3.2-2,1.6-3.2,2.1-2.5.8-3.9.8ZM12,20c2.2,0,4.1-.8,5.7-2.3s2.3-3.4,2.3-5.7-.8-4.1-2.3-5.7-3.4-2.3-5.7-2.3-4.1.8-5.7,2.3-2.3,3.4-2.3,5.7.8,4.1,2.3,5.7,3.4,2.3,5.7,2.3Z"/>
    </g>
  </g>
</svg>